<svg width="29" height="29" viewBox="0 0 29 29" fill="none" xmlns="http://www.w3.org/2000/svg">
<rect width="29" height="29" rx="14.5" fill="url(#paint0_linear_236_949)"/>
<path d="M15.2369 21.5C15.0689 21.5 14.9309 21.446 14.8229 21.338C14.7149 21.23 14.6609 21.104 14.6609 20.96V10.124L14.8589 10.304L12.4649 11.906C12.3689 11.978 12.2669 12.014 12.1589 12.014C12.0149 12.014 11.8829 11.954 11.7629 11.834C11.6549 11.714 11.6009 11.582 11.6009 11.438C11.6009 11.246 11.6969 11.096 11.8889 10.988L14.8949 8.99C14.9669 8.942 15.0389 8.912 15.1109 8.9C15.1949 8.888 15.2669 8.888 15.3269 8.9C15.4829 8.912 15.6029 8.972 15.6869 9.08C15.7709 9.176 15.8129 9.296 15.8129 9.44V20.96C15.8129 21.104 15.7589 21.23 15.6509 21.338C15.5429 21.446 15.4049 21.5 15.2369 21.5Z" fill="#FAF3EB"/>
<defs>
<linearGradient id="paint0_linear_236_949" x1="-8.18328e-10" y1="14.4502" x2="29.0001" y2="14.4945" gradientUnits="userSpaceOnUse">
<stop stop-color="#FFA656"/>
<stop offset="1" stop-color="#CF711C"/>
</linearGradient>
</defs>
</svg>
