<svg width="29" height="29" viewBox="0 0 29 29" fill="none" xmlns="http://www.w3.org/2000/svg">
<rect width="29" height="29" rx="14.5" fill="url(#paint0_linear_236_1000)"/>
<path d="M18.0486 20.456C18.1926 20.456 18.3126 20.51 18.4086 20.618C18.5166 20.714 18.5706 20.834 18.5706 20.978C18.5706 21.134 18.5166 21.26 18.4086 21.356C18.3126 21.452 18.1926 21.5 18.0486 21.5H11.2986C11.1426 21.5 11.0046 21.458 10.8846 21.374C10.7766 21.278 10.7226 21.14 10.7226 20.96C10.7226 20.828 10.7706 20.702 10.8666 20.582L15.0246 15.992C15.6846 15.272 16.1766 14.612 16.5006 14.012C16.8366 13.4 17.0046 12.854 17.0046 12.374C17.0046 11.582 16.7646 10.946 16.2846 10.466C15.8046 9.986 15.1566 9.746 14.3406 9.746C13.9686 9.746 13.5966 9.824 13.2246 9.98C12.8646 10.136 12.5406 10.34 12.2526 10.592C11.9766 10.844 11.7606 11.132 11.6046 11.456C11.5326 11.576 11.4546 11.66 11.3706 11.708C11.2986 11.756 11.2146 11.78 11.1186 11.78C10.9746 11.78 10.8486 11.738 10.7406 11.654C10.6326 11.558 10.5786 11.444 10.5786 11.312C10.5786 11.228 10.5966 11.144 10.6326 11.06C10.6806 10.976 10.7466 10.88 10.8306 10.772C11.0466 10.4 11.3466 10.058 11.7306 9.746C12.1146 9.434 12.5406 9.188 13.0086 9.008C13.4886 8.816 13.9566 8.72 14.4126 8.72C15.1806 8.72 15.8406 8.87 16.3926 9.17C16.9566 9.458 17.3886 9.872 17.6886 10.412C18.0006 10.94 18.1566 11.57 18.1566 12.302C18.1566 12.926 17.9586 13.61 17.5626 14.354C17.1786 15.086 16.6026 15.878 15.8346 16.73L12.3246 20.672L12.1446 20.456H18.0486Z" fill="#FAF3EB"/>
<defs>
<linearGradient id="paint0_linear_236_1000" x1="-8.18328e-10" y1="14.4502" x2="29.0001" y2="14.4945" gradientUnits="userSpaceOnUse">
<stop stop-color="#FFA656"/>
<stop offset="1" stop-color="#CF711C"/>
</linearGradient>
</defs>
</svg>
