<svg width="29" height="29" viewBox="0 0 29 29" fill="none" xmlns="http://www.w3.org/2000/svg">
<rect width="29" height="29" rx="14.5" fill="url(#paint0_linear_236_1054)"/>
<path d="M11.3823 19.646C11.4423 19.646 11.5023 19.658 11.5623 19.682C11.6343 19.706 11.7183 19.76 11.8143 19.844C12.0663 20.108 12.3663 20.312 12.7143 20.456C13.0623 20.588 13.4583 20.654 13.9023 20.654C14.4903 20.654 15.0243 20.522 15.5043 20.258C15.9963 19.994 16.3863 19.628 16.6743 19.16C16.9623 18.68 17.1063 18.134 17.1063 17.522C17.1063 16.826 16.9503 16.268 16.6383 15.848C16.3383 15.416 15.9483 15.098 15.4683 14.894C15.0003 14.678 14.5203 14.57 14.0283 14.57C13.8963 14.57 13.7643 14.582 13.6323 14.606C13.5123 14.618 13.3983 14.636 13.2903 14.66C13.1823 14.684 13.0983 14.696 13.0383 14.696C12.8823 14.696 12.7623 14.648 12.6783 14.552C12.5943 14.444 12.5523 14.312 12.5523 14.156C12.5523 14.072 12.5703 14 12.6063 13.94C12.6423 13.868 12.6903 13.79 12.7503 13.706L16.4043 9.728L16.6203 10.016H11.1663C11.0223 10.016 10.8963 9.968 10.7883 9.872C10.6923 9.764 10.6443 9.638 10.6443 9.494C10.6443 9.35 10.6923 9.23 10.7883 9.134C10.8963 9.038 11.0223 8.99 11.1663 8.99H17.2143C17.4183 8.99 17.5623 9.056 17.6463 9.188C17.7303 9.308 17.7723 9.428 17.7723 9.548C17.7723 9.62 17.7543 9.692 17.7183 9.764C17.6823 9.824 17.6343 9.89 17.5743 9.962L13.9203 13.94L13.5243 13.706C13.5603 13.67 13.6803 13.634 13.8843 13.598C14.1003 13.55 14.2683 13.526 14.3883 13.526C15.0483 13.526 15.6663 13.682 16.2423 13.994C16.8303 14.306 17.3043 14.756 17.6643 15.344C18.0363 15.92 18.2223 16.634 18.2223 17.486C18.2223 18.326 18.0243 19.064 17.6283 19.7C17.2323 20.324 16.6983 20.81 16.0263 21.158C15.3543 21.506 14.6103 21.68 13.7943 21.68C13.3023 21.68 12.8163 21.596 12.3363 21.428C11.8563 21.26 11.4363 21.008 11.0763 20.672C10.9923 20.6 10.9323 20.528 10.8963 20.456C10.8603 20.384 10.8423 20.312 10.8423 20.24C10.8423 20.096 10.8903 19.964 10.9863 19.844C11.0943 19.712 11.2263 19.646 11.3823 19.646Z" fill="#FAF3EB"/>
<defs>
<linearGradient id="paint0_linear_236_1054" x1="-8.18328e-10" y1="14.4502" x2="29.0001" y2="14.4945" gradientUnits="userSpaceOnUse">
<stop stop-color="#FFA656"/>
<stop offset="1" stop-color="#CF711C"/>
</linearGradient>
</defs>
</svg>
