<svg width="29" height="29" viewBox="0 0 29 29" fill="none" xmlns="http://www.w3.org/2000/svg">
<rect width="29" height="29" rx="14.5" fill="url(#paint0_linear_236_1095)"/>
<path d="M16.3599 21.5C16.2039 21.5 16.0779 21.446 15.9819 21.338C15.8859 21.23 15.8379 21.104 15.8379 20.96V10.394L16.0719 10.538L11.3379 16.802L11.2839 16.604H18.1959C18.3399 16.604 18.4599 16.652 18.5559 16.748C18.6639 16.844 18.7179 16.964 18.7179 17.108C18.7179 17.252 18.6639 17.372 18.5559 17.468C18.4599 17.564 18.3399 17.612 18.1959 17.612H10.5459C10.4019 17.612 10.2759 17.558 10.1679 17.45C10.0599 17.33 10.0059 17.198 10.0059 17.054C10.0059 16.922 10.0479 16.802 10.1319 16.694L15.9279 9.116C15.9879 9.032 16.0599 8.978 16.1439 8.954C16.2399 8.918 16.3179 8.9 16.3779 8.9C16.5339 8.9 16.6599 8.954 16.7559 9.062C16.8639 9.17 16.9179 9.296 16.9179 9.44V20.96C16.9179 21.104 16.8639 21.23 16.7559 21.338C16.6479 21.446 16.5159 21.5 16.3599 21.5Z" fill="#FAF3EB"/>
<defs>
<linearGradient id="paint0_linear_236_1095" x1="-8.18328e-10" y1="14.4502" x2="29.0001" y2="14.4945" gradientUnits="userSpaceOnUse">
<stop stop-color="#FFA656"/>
<stop offset="1" stop-color="#CF711C"/>
</linearGradient>
</defs>
</svg>
