<svg width="40" height="40" viewBox="0 0 40 40" fill="none" xmlns="http://www.w3.org/2000/svg">
<rect y="-0.000244141" width="40" height="40" rx="20" fill="url(#paint0_linear_78_49)"/>
<path d="M20 9.99976C25.523 9.99976 30 14.4768 30 19.9998C30 25.5228 25.523 29.9998 20 29.9998C14.477 29.9998 10 25.5228 10 19.9998C10 14.4768 14.477 9.99976 20 9.99976ZM20 13.9998C19.7348 13.9998 19.4804 14.1051 19.2929 14.2926C19.1054 14.4802 19 14.7345 19 14.9998V19.9998C19.0001 20.265 19.1055 20.5193 19.293 20.7068L22.293 23.7068C22.4816 23.8889 22.7342 23.9897 22.9964 23.9874C23.2586 23.9852 23.5094 23.88 23.6948 23.6946C23.8802 23.5092 23.9854 23.2584 23.9877 22.9962C23.99 22.734 23.8892 22.4814 23.707 22.2928L21 19.5858V14.9998C21 14.7345 20.8946 14.4802 20.7071 14.2926C20.5196 14.1051 20.2652 13.9998 20 13.9998Z" fill="#FAF3EB"/>
<defs>
<linearGradient id="paint0_linear_78_49" x1="-1.12873e-09" y1="19.9311" x2="40.0001" y2="19.9921" gradientUnits="userSpaceOnUse">
<stop stop-color="#FFA656"/>
<stop offset="1" stop-color="#CF711C"/>
</linearGradient>
</defs>
</svg>
