<svg width="20" height="20" viewBox="0 0 20 20" fill="none" xmlns="http://www.w3.org/2000/svg">
<path d="M10 -0.000244141C15.523 -0.000244141 20 4.47676 20 9.99976C20 15.5228 15.523 19.9998 10 19.9998C4.477 19.9998 0 15.5228 0 9.99976C0 4.47676 4.477 -0.000244141 10 -0.000244141ZM10 3.99976C9.73478 3.99976 9.48043 4.10511 9.29289 4.29265C9.10536 4.48019 9 4.73454 9 4.99976V9.99976C9.00006 10.265 9.10545 10.5193 9.293 10.7068L12.293 13.7068C12.4816 13.8889 12.7342 13.9897 12.9964 13.9874C13.2586 13.9852 13.5094 13.88 13.6948 13.6946C13.8802 13.5092 13.9854 13.2584 13.9877 12.9962C13.99 12.734 13.8892 12.4814 13.707 12.2928L11 9.58576V4.99976C11 4.73454 10.8946 4.48019 10.7071 4.29265C10.5196 4.10511 10.2652 3.99976 10 3.99976Z" fill="#FAF3EB"/>
</svg>
