<svg width="22" height="22" viewBox="0 0 22 22" fill="none" xmlns="http://www.w3.org/2000/svg">
<path d="M5.95071 7.57715C5.71029 7.33673 5.59009 7.06096 5.59009 6.74983C5.59009 6.4387 5.70322 6.17 5.9295 5.94373C6.15577 5.71746 6.4174 5.61139 6.71439 5.62553C7.02551 5.62553 7.30128 5.74574 7.5417 5.98616L16.2391 14.6836C16.4795 14.924 16.5997 15.1998 16.5997 15.5109C16.5997 15.822 16.4866 16.0907 16.2603 16.317C16.0341 16.5433 15.7654 16.6564 15.4542 16.6564C15.1572 16.6423 14.8885 16.515 14.6481 16.2746L5.95071 7.57715ZM5.84464 16.3382C5.59009 16.0836 5.45574 15.7796 5.44159 15.426C5.44159 15.0866 5.56887 14.7896 5.82343 14.5351L14.5845 5.77402C14.8532 5.50532 15.1572 5.37097 15.4967 5.37097C15.8502 5.38511 16.1613 5.52654 16.43 5.79524C16.6987 6.06394 16.826 6.36092 16.8119 6.68619C16.8119 7.0256 16.6775 7.32966 16.4088 7.59836L7.66898 16.3382C7.40028 16.6069 7.09622 16.7413 6.75681 16.7413C6.4174 16.7413 6.11334 16.6069 5.84464 16.3382Z" fill="#FAF3EB"/>
</svg>
