<svg width="28" height="28" viewBox="0 0 28 28" fill="none" xmlns="http://www.w3.org/2000/svg">
<path d="M4.33136 0C2.43787 0 0.542012 1.43017 0.542012 4.2905L4.33136 11.9181L8.11834 4.2905C8.11834 1.43017 6.22485 0 4.33136 0ZM21.0355 2.32402C20.6272 2.3413 20.2308 2.41937 19.8994 2.49087L20.1243 3.53966C20.4556 3.46517 20.7988 3.4181 21.0888 3.39665L21.0355 2.32402ZM4.33136 2.38361C5.3787 2.38361 6.22485 3.23754 6.22485 4.2905C6.22485 5.34525 5.3787 6.19739 4.33136 6.19739C3.2858 6.19739 2.43787 5.34525 2.43787 4.2905C2.43787 3.23754 3.2858 2.38361 4.33136 2.38361ZM22.213 2.39553L22.0355 3.45028C22.3254 3.51166 22.6154 3.58853 22.8698 3.74227L23.3846 2.80074C23.0237 2.60707 22.6213 2.43307 22.213 2.39553ZM18.8106 2.79478C18.4497 2.93661 18.0888 3.06354 17.7811 3.18808L18.2012 4.17132C18.5266 4.03188 18.8698 3.91031 19.1598 3.80782L18.8106 2.79478ZM24.355 3.59329L23.5444 4.2905C23.7574 4.53601 23.9231 4.83873 24.0533 5.08305L25.0059 4.60037C24.8047 4.21005 24.6272 3.91449 24.355 3.59329ZM16.7929 3.64692C16.432 3.83225 16.1361 3.99732 15.8166 4.1594L16.3373 5.10093C16.645 4.92216 16.9822 4.74935 17.2544 4.61229L16.7929 3.64692ZM14.8817 4.71359C14.568 4.89832 14.2604 5.08305 13.9586 5.28566L14.5385 6.17951C14.8284 5.98882 15.1302 5.81005 15.426 5.63128L14.8817 4.71359ZM25.3728 5.78026C25.0237 5.83985 24.6686 5.88156 24.3195 5.92327C24.3432 6.22123 24.3254 6.54301 24.2663 6.79329L25.3018 7.03761C25.3609 6.60856 25.4142 6.16759 25.3728 5.78026ZM13.0592 5.88156C12.7633 6.08417 12.4734 6.29273 12.1775 6.49534L12.7929 7.37132C13.0769 7.16275 13.3669 6.9661 13.6568 6.7635L13.0592 5.88156ZM11.3077 7.13892C11.0118 7.35344 10.7041 7.5918 10.4497 7.78845L11.0947 8.64059C11.4201 8.40223 11.645 8.22346 11.9408 8.00297L11.3077 7.13892ZM23.9112 7.61564C23.7337 7.88975 23.5266 8.16387 23.3195 8.37243L24.0947 9.11731C24.3491 8.8134 24.6213 8.50353 24.8106 8.19366L23.9112 7.61564ZM9.60355 8.45586C9.31361 8.6823 9.02367 8.91471 8.76923 9.12923L9.44379 9.95754C9.72189 9.72513 10.0059 9.48677 10.2663 9.29608L9.60355 8.45586ZM22.5858 9.05772C22.3136 9.27821 22.0296 9.49273 21.7692 9.6715L22.3787 10.5534C22.6923 10.3389 23 10.1065 23.2663 9.89199L22.5858 9.05772ZM7.94675 9.82644C7.66864 10.0529 7.40237 10.2912 7.13018 10.5236L7.82249 11.34C8.08876 11.1076 8.35503 10.8752 8.62722 10.6488L7.94675 9.82644ZM20.8994 10.2436C20.5976 10.4223 20.284 10.6071 20 10.762L20.5089 11.7095C20.8284 11.5128 21.1893 11.34 21.4556 11.1613L20.8994 10.2436ZM6.31953 11.2328C6.05325 11.4711 5.7929 11.7095 5.52663 11.9538L6.2426 12.7523C6.50296 12.514 6.76923 12.2756 7.02959 12.0372L6.31953 11.2328ZM19.071 11.2566C18.7574 11.4115 18.4438 11.5724 18.1302 11.7274L18.5858 12.6927C18.9527 12.514 19.2249 12.365 19.5562 12.21L19.071 11.2566ZM17.1775 12.1743C16.8521 12.3233 16.5385 12.4663 16.2071 12.6033L16.6391 13.5866C16.9645 13.4436 17.2899 13.2946 17.6154 13.1456L17.1775 12.1743ZM4.74556 12.6927C4.44379 12.9609 4.23373 13.1695 3.95858 13.4376L4.71006 14.2123C4.98817 13.9441 5.21302 13.7117 5.47337 13.4853L4.74556 12.6927ZM15.2367 13.0384C14.9112 13.1754 14.5858 13.3184 14.2604 13.4555L14.6746 14.4506C15.0059 14.3136 15.3314 14.1706 15.6568 14.0276L15.2367 13.0384ZM13.2781 13.8726C12.9527 14.0156 12.6272 14.1586 12.2959 14.2897L12.7101 15.2849C13.0355 15.1478 13.3669 15.0048 13.6923 14.8678L13.2781 13.8726ZM24.213 14.3017C22.3195 14.3017 20.426 15.7318 20.426 18.5922L24.213 26.2197L28 18.5922C28 15.7318 26.1065 14.3017 24.213 14.3017ZM11.3136 14.7069C10.9763 14.8618 10.6213 15.0048 10.3314 15.13L10.7515 16.1192C11.1006 15.9702 11.432 15.8272 11.7278 15.6961L11.3136 14.7069ZM9.34911 15.5531C9.02958 15.702 8.6568 15.8689 8.37278 16L8.81065 16.9773C9.15976 16.8223 9.46746 16.6674 9.77515 16.5363L9.34911 15.5531ZM7.39645 16.4469C7.06509 16.6078 6.72189 16.7747 6.42603 16.9236L6.90533 17.883C7.22485 17.7162 7.55621 17.5613 7.84615 17.4182L7.39645 16.4469ZM24.213 16.6853C25.2604 16.6853 26.1065 17.5374 26.1065 18.5922C26.1065 19.6469 25.2604 20.4991 24.213 20.4991C23.1657 20.4991 22.3195 19.6469 22.3195 18.5922C22.3195 17.5374 23.1657 16.6853 24.213 16.6853ZM5.46746 17.4182C5.15385 17.591 4.84024 17.7698 4.52071 17.9545L5.05325 18.8842C5.35503 18.7054 5.66272 18.5385 5.97041 18.3717L5.46746 17.4182ZM3.59172 18.5326C3.25976 18.7233 2.93905 18.9795 2.66272 19.1642L3.30769 20.0223C3.60177 19.8078 3.91834 19.5873 4.1716 19.4324L3.59172 18.5326ZM1.82249 19.8793C1.53846 20.1415 1.25858 20.4454 1.04142 20.7017L1.85207 21.3989C2.07988 21.1188 2.27811 20.9102 2.54438 20.6719L1.82249 19.8793ZM14.7101 19.9568L14.8047 21.0235C15.1124 20.9698 15.4201 21.0056 15.7278 21.0532L15.9112 19.9985C15.5207 19.9389 15.1065 19.8972 14.7101 19.9568ZM12.5089 20.5527L12.9112 21.5478C13.2189 21.4108 13.5385 21.3035 13.8639 21.2022C13.7515 20.8626 13.6686 20.5169 13.5799 20.1713C13.2071 20.2786 12.8343 20.4216 12.5089 20.5527ZM17.0947 20.4991L16.4911 21.381C16.7396 21.5657 16.9822 21.7624 17.1775 22.0067L17.9822 21.3035C17.6805 20.9937 17.4497 20.7017 17.0947 20.4991ZM11.503 21.0354C11.1775 21.2022 10.8639 21.3929 10.5503 21.5776L11.0888 22.5013C11.3965 22.3344 11.6982 22.1378 12 21.9769L11.503 21.0354ZM0.391124 21.6909C0.212426 22.0782 0.0674556 22.4953 0 22.8648L1.04734 23.0495C1.11124 22.7099 1.20296 22.4655 1.33728 22.1735C1.01243 22.0305 0.702367 21.8577 0.391124 21.6909ZM9.62722 22.1557C9.32544 22.3523 9.02959 22.549 8.73373 22.7516L9.32544 23.6454C9.6213 23.4488 9.91124 23.2462 10.2071 23.0495L9.62722 22.1557ZM18.6627 22.2272L17.7692 22.8112C17.9586 23.0972 18.142 23.3951 18.3136 23.6991L19.2367 23.1627C19.0296 22.829 18.8817 22.5311 18.6627 22.2272ZM7.85207 23.3594C7.55621 23.556 7.26035 23.7467 6.97041 23.9553L7.56213 24.8491C7.84615 24.6406 8.14793 24.4439 8.4497 24.2413L7.85207 23.3594ZM1.05917 23.9255C0.716568 23.997 0.371006 24.0566 0.0266273 24.1221C0.0887574 24.5393 0.25503 24.9445 0.405325 25.2663L1.36686 24.8015C1.23846 24.5035 1.11657 24.1937 1.05917 23.9255ZM19.7633 24.0924L18.8402 24.6287C19.0237 24.9504 19.2367 25.2961 19.4083 25.5702L20.3018 24.9922C20.1006 24.6763 19.929 24.3784 19.7633 24.0924ZM6.09467 24.5393C5.79882 24.724 5.50888 24.9028 5.20118 25.0756L5.72781 26.0112C6.04142 25.8264 6.35503 25.6417 6.6568 25.445L6.09467 24.5393ZM1.87574 25.5106L1.14793 26.2972C1.47692 26.613 1.88284 26.8216 2.32544 26.9169L2.56213 25.8741C2.29941 25.8205 2.05385 25.6894 1.87574 25.5106ZM4.30177 25.5285C4.00532 25.6655 3.69763 25.7728 3.3787 25.8383L3.6213 26.8871C4.00118 26.8097 4.35858 26.6667 4.71598 26.5177L4.30177 25.5285ZM20.8876 25.8145L20.0651 26.4879C20.3195 26.8037 20.6331 27.1076 20.9053 27.3221L21.5621 26.476C21.3018 26.2734 21.0769 26.029 20.8876 25.8145ZM22.3136 26.8573L22.0473 27.9002C22.5148 27.9955 22.8639 28.0253 23.3018 27.9776L23.1716 26.911C22.8817 26.9586 22.5976 26.9288 22.3136 26.8573Z" fill="url(#paint0_linear_338_358)"/>
<defs>
<linearGradient id="paint0_linear_338_358" x1="-7.9011e-10" y1="13.9519" x2="28.0001" y2="13.9947" gradientUnits="userSpaceOnUse">
<stop stop-color="#FFA656"/>
<stop offset="1" stop-color="#CF711C"/>
</linearGradient>
</defs>
</svg>
