<svg width="16" height="18" viewBox="0 0 16 18" fill="none" xmlns="http://www.w3.org/2000/svg">
<path d="M0 15.7498V6.74976C0 6.43309 0.0709998 6.13309 0.213 5.84976C0.355 5.56642 0.550667 5.33309 0.8 5.14976L6.8 0.649756C7.15 0.383089 7.55 0.249756 8 0.249756C8.45 0.249756 8.85 0.383089 9.2 0.649756L15.2 5.14976C15.45 5.33309 15.646 5.56642 15.788 5.84976C15.93 6.13309 16.0007 6.43309 16 6.74976V15.7498C16 16.2998 15.804 16.7708 15.412 17.1628C15.02 17.5548 14.5493 17.7504 14 17.7498H11C10.7167 17.7498 10.4793 17.6538 10.288 17.4618C10.0967 17.2698 10.0007 17.0324 10 16.7498V11.7498C10 11.4664 9.904 11.2291 9.712 11.0378C9.52 10.8464 9.28267 10.7504 9 10.7498H7C6.71667 10.7498 6.47933 10.8458 6.288 11.0378C6.09667 11.2298 6.00067 11.4671 6 11.7498V16.7498C6 17.0331 5.904 17.2708 5.712 17.4628C5.52 17.6548 5.28267 17.7504 5 17.7498H2C1.45 17.7498 0.979333 17.5541 0.588 17.1628C0.196666 16.7714 0.000666667 16.3004 0 15.7498Z" fill="#FAF3EB"/>
</svg>
