<svg width="24" height="24" viewBox="0 0 24 24" fill="none" xmlns="http://www.w3.org/2000/svg">
<rect width="24" height="24" rx="8" fill="url(#paint0_linear_236_1412)"/>
<mask id="path-2-inside-1_236_1412" fill="white">
<path d="M7.49558 18.3709C7.49918 18.3733 7.50398 18.3721 7.50758 18.3745C7.53585 18.3904 7.56756 18.3991 7.59998 18.4001C7.61783 18.4 7.63558 18.3976 7.65278 18.3929L12 17.2065L16.3472 18.3929C16.3644 18.3976 16.3821 18.4 16.4 18.4001C16.4323 18.399 16.4639 18.39 16.492 18.3741C16.496 18.3721 16.5004 18.3729 16.504 18.3705L20.104 16.1705C20.1412 16.1477 20.17 16.1133 20.1859 16.0727C20.2018 16.032 20.2039 15.9873 20.192 15.9453L18.1984 8.94526C18.1902 8.91616 18.1754 8.88929 18.1553 8.8667C18.1352 8.8441 18.1103 8.82636 18.0823 8.8148C18.0543 8.80325 18.0241 8.79819 17.9939 8.8C17.9637 8.80182 17.9344 8.81045 17.908 8.82526L15.9232 9.93886C15.8797 9.96631 15.8485 10.0094 15.8359 10.0592C15.8233 10.1091 15.8303 10.1619 15.8555 10.2066C15.8808 10.2514 15.9222 10.2848 15.9714 10.2999C16.0205 10.315 16.0736 10.3106 16.1196 10.2877L17.8832 9.29766L19.766 15.9081L16.56 17.8677L15.7984 11.7753C15.7918 11.7226 15.7646 11.6747 15.7227 11.6421C15.6808 11.6095 15.6277 11.5949 15.575 11.6015C15.5223 11.608 15.4744 11.6353 15.4418 11.6772C15.4092 11.7191 15.3946 11.7722 15.4012 11.8249L16.164 17.9285L12.2 16.8465V15.7545C12.2 15.7014 12.1789 15.6505 12.1414 15.613C12.1039 15.5755 12.053 15.5545 12 15.5545C11.9469 15.5545 11.8961 15.5755 11.8586 15.613C11.8211 15.6505 11.8 15.7014 11.8 15.7545V16.8465L7.83558 17.9285L8.59838 11.8249C8.60164 11.7988 8.59973 11.7723 8.59276 11.747C8.58579 11.7216 8.57389 11.6979 8.55775 11.6772C8.54161 11.6564 8.52155 11.6391 8.4987 11.6261C8.47585 11.6131 8.45066 11.6047 8.42458 11.6015C8.3985 11.5982 8.37204 11.6001 8.3467 11.6071C8.32135 11.6141 8.29763 11.626 8.27689 11.6421C8.25615 11.6582 8.23878 11.6783 8.22579 11.7012C8.2128 11.724 8.20444 11.7492 8.20118 11.7753L7.43999 17.8677L4.23398 15.9085L6.11678 9.29846L7.88038 10.2885C7.92639 10.3114 7.97945 10.3158 8.02859 10.3007C8.07773 10.2856 8.1192 10.2522 8.14442 10.2074C8.16965 10.1627 8.17669 10.1099 8.1641 10.06C8.15151 10.0102 8.12025 9.96711 8.07679 9.93966L6.09158 8.82566C6.06529 8.81061 6.0359 8.80178 6.00566 8.79984C5.97542 8.79791 5.94514 8.80293 5.91714 8.81451C5.88915 8.8261 5.86417 8.84394 5.84414 8.86668C5.82411 8.88941 5.80955 8.91643 5.80158 8.94566L3.80798 15.9457C3.79606 15.9877 3.79821 16.0324 3.8141 16.0731C3.82999 16.1137 3.85875 16.1481 3.89598 16.1709L7.49558 18.3709Z"/>
</mask>
<path d="M7.49558 18.3709L8.82687 16.3739L8.78752 16.3477L8.74717 16.323L7.49558 18.3709ZM7.50758 18.3745L6.1763 20.3714L6.25189 20.4218L6.33107 20.4663L7.50758 18.3745ZM7.59998 18.4001L7.53227 20.7991L7.56841 20.8001L7.60457 20.8001L7.59998 18.4001ZM7.65278 18.3929L7.0209 16.0775L7.0146 16.0793L7.65278 18.3929ZM12 17.2065L12.6319 14.8911L12 14.7187L11.3681 14.8911L12 17.2065ZM16.3472 18.3929L16.9854 16.0793L16.9791 16.0775L16.3472 18.3929ZM16.4 18.4001L16.3954 20.8001L16.4386 20.8001L16.4818 20.7987L16.4 18.4001ZM16.492 18.3741L15.4187 16.2274L15.3616 16.256L15.3062 16.2875L16.492 18.3741ZM16.504 18.3705L15.2525 16.3226L15.2121 16.3473L15.1727 16.3735L16.504 18.3705ZM20.104 16.1705L21.3555 18.2183L21.3568 18.2175L20.104 16.1705ZM20.192 15.9453L22.5008 15.2899L22.5002 15.2879L20.192 15.9453ZM18.1984 8.94526L15.8888 9.59784L15.8902 9.60264L18.1984 8.94526ZM17.908 8.82526L19.0823 10.9183L19.0832 10.9178L17.908 8.82526ZM15.9232 9.93886L14.7488 7.8458L14.6946 7.87624L14.642 7.90946L15.9232 9.93886ZM16.1196 10.2877L17.1905 12.4355L17.2431 12.4093L17.2944 12.3805L16.1196 10.2877ZM17.8832 9.29766L20.1914 8.64023L19.3588 5.71705L16.7084 7.20486L17.8832 9.29766ZM19.766 15.9081L21.0176 17.9558L22.5738 17.0047L22.0742 15.2506L19.766 15.9081ZM16.56 17.8677L14.1785 18.1654L14.6397 21.8542L17.8116 19.9154L16.56 17.8677ZM15.7984 11.7753L13.4169 12.0727L13.4169 12.073L15.7984 11.7753ZM15.4012 11.8249L13.0197 12.1223L13.0197 12.1225L15.4012 11.8249ZM16.164 17.9285L15.532 20.2438L18.99 21.1876L18.5455 17.6308L16.164 17.9285ZM12.2 16.8465H9.79998V18.6792L11.568 19.1618L12.2 16.8465ZM11.8 16.8465L12.4319 19.1618L14.2 18.6792V16.8465H11.8ZM7.83558 17.9285L5.45411 17.6308L5.00961 21.1875L8.4675 20.2438L7.83558 17.9285ZM8.59838 11.8249L10.9799 12.1225L10.9799 12.1223L8.59838 11.8249ZM8.20118 11.7753L10.5827 12.0728L10.5827 12.0727L8.20118 11.7753ZM7.43999 17.8677L6.18852 19.9155L9.36058 21.854L9.82147 18.1652L7.43999 17.8677ZM4.23398 15.9085L1.9258 15.251L1.42612 17.0052L2.98251 17.9563L4.23398 15.9085ZM6.11678 9.29846L7.29159 7.20566L4.64122 5.71787L3.8086 8.641L6.11678 9.29846ZM7.88038 10.2885L6.70558 12.3813L6.75687 12.4101L6.8095 12.4363L7.88038 10.2885ZM8.07679 9.93966L9.358 7.91026L9.30546 7.87709L9.25127 7.84668L8.07679 9.93966ZM6.09158 8.82566L4.89905 10.9084L4.90805 10.9136L4.9171 10.9186L6.09158 8.82566ZM5.80158 8.94566L8.1098 9.60304L8.11353 9.58994L8.11711 9.5768L5.80158 8.94566ZM3.80798 15.9457L1.49977 15.2883L1.49919 15.2903L3.80798 15.9457ZM3.89598 16.1709L2.64319 18.2179L2.6444 18.2187L3.89598 16.1709ZM7.49558 18.3709L6.1643 20.3678C6.23512 20.415 6.30547 20.4565 6.3743 20.4929C6.44305 20.5292 6.50946 20.5601 6.57235 20.5863C6.69748 20.6386 6.80885 20.6727 6.89609 20.6953C6.93993 20.7066 6.97907 20.7155 7.01202 20.7223C7.04489 20.7291 7.07317 20.7343 7.09501 20.738C7.11667 20.7417 7.13427 20.7444 7.14495 20.746C7.15042 20.7468 7.15487 20.7475 7.15761 20.7479C7.159 20.7481 7.16015 20.7483 7.16087 20.7484C7.16123 20.7484 7.16153 20.7485 7.16173 20.7485C7.16191 20.7485 7.16207 20.7485 7.16208 20.7485C7.16256 20.7486 7.16064 20.7483 7.15839 20.748C7.15592 20.7476 7.15173 20.747 7.14653 20.7463C7.13636 20.7447 7.11929 20.7421 7.09815 20.7385C7.07683 20.7348 7.04907 20.7298 7.01671 20.7231C6.98427 20.7163 6.94565 20.7076 6.90232 20.6964C6.81608 20.674 6.70572 20.6403 6.58154 20.5885C6.51914 20.5624 6.45321 20.5318 6.38492 20.4957C6.31656 20.4595 6.24667 20.4183 6.1763 20.3714L7.50758 18.3745L8.83887 16.3775C8.76805 16.3303 8.6977 16.2889 8.62887 16.2525C8.56012 16.2161 8.49371 16.1852 8.43082 16.159C8.30569 16.1067 8.19432 16.0727 8.10707 16.0501C8.06324 16.0387 8.0241 16.0299 7.99115 16.023C7.95828 16.0162 7.93 16.0111 7.90816 16.0073C7.8865 16.0036 7.8689 16.0009 7.85822 15.9993C7.85275 15.9985 7.8483 15.9978 7.84556 15.9974C7.84417 15.9972 7.84302 15.9971 7.8423 15.997C7.84194 15.9969 7.84164 15.9969 7.84144 15.9968C7.84126 15.9968 7.8411 15.9968 7.84109 15.9968C7.84061 15.9967 7.84253 15.997 7.84478 15.9973C7.84725 15.9977 7.85144 15.9983 7.85664 15.9991C7.86681 16.0006 7.88388 16.0032 7.90502 16.0068C7.92634 16.0105 7.9541 16.0155 7.98645 16.0223C8.0189 16.029 8.05752 16.0377 8.10085 16.0489C8.18709 16.0713 8.29745 16.105 8.42163 16.1569C8.48403 16.1829 8.54996 16.2136 8.61825 16.2497C8.68661 16.2858 8.7565 16.327 8.82687 16.3739L7.49558 18.3709ZM7.50758 18.3745L6.33107 20.4663C6.69858 20.673 7.11082 20.7872 7.53227 20.7991L7.59998 18.4001L7.6677 16.001C8.0243 16.0111 8.37313 16.1077 8.6841 16.2826L7.50758 18.3745ZM7.59998 18.4001L7.60457 20.8001C7.8365 20.7996 8.06735 20.7681 8.29097 20.7065L7.65278 18.3929L7.0146 16.0793C7.20382 16.0271 7.39915 16.0004 7.5954 16.0001L7.59998 18.4001ZM7.65278 18.3929L8.28466 20.7082L12.6319 19.5218L12 17.2065L11.3681 14.8911L7.02091 16.0775L7.65278 18.3929ZM12 17.2065L11.3681 19.5218L15.7153 20.7082L16.3472 18.3929L16.9791 16.0775L12.6319 14.8911L12 17.2065ZM16.3472 18.3929L15.709 20.7065C15.9326 20.7681 16.1635 20.7996 16.3954 20.8001L16.4 18.4001L16.4046 16.0001C16.6008 16.0004 16.7962 16.0271 16.9854 16.0793L16.3472 18.3929ZM16.4 18.4001L16.4818 20.7987C16.9019 20.7843 17.3123 20.6684 17.6778 20.4607L16.492 18.3741L15.3062 16.2875C15.6154 16.1117 15.9627 16.0136 16.3182 16.0015L16.4 18.4001ZM16.492 18.3741L17.5653 20.5207C17.3506 20.628 17.1628 20.6813 17.047 20.7087C16.99 20.7221 16.9445 20.7306 16.9217 20.7347C16.9085 20.7371 16.8792 20.7421 16.9019 20.7382C16.9103 20.7368 16.9461 20.7307 16.9912 20.7213C17.038 20.7115 17.1071 20.6956 17.1893 20.671C17.3583 20.6204 17.5899 20.531 17.8353 20.3674L16.504 18.3705L15.1727 16.3735C15.4163 16.2112 15.646 16.1225 15.813 16.0725C15.8942 16.0482 15.9623 16.0326 16.0081 16.023C16.0523 16.0138 16.0869 16.0079 16.0944 16.0066C16.0968 16.0062 16.0986 16.0059 16.0988 16.0059C16.0996 16.0057 16.0978 16.006 16.0964 16.0063C16.0932 16.0068 16.0836 16.0084 16.0715 16.0106C16.0477 16.0149 16.0011 16.0236 15.9431 16.0373C15.8252 16.0652 15.6354 16.1191 15.4187 16.2274L16.492 18.3741ZM16.504 18.3705L17.7555 20.4183L21.3555 18.2183L20.104 16.1705L18.8525 14.1226L15.2525 16.3226L16.504 18.3705ZM20.104 16.1705L21.3568 18.2175C21.8408 17.9213 22.2147 17.4748 22.4213 16.9462L20.1859 16.0727L17.9505 15.1992C18.1253 14.7519 18.4416 14.3741 18.8512 14.1234L20.104 16.1705ZM20.1859 16.0727L22.4213 16.9462C22.6278 16.4176 22.6558 15.8359 22.5008 15.2899L20.192 15.9453L17.8832 16.6006C17.7521 16.1386 17.7757 15.6464 17.9505 15.1992L20.1859 16.0727ZM20.192 15.9453L22.5002 15.2879L20.5066 8.28788L18.1984 8.94526L15.8902 9.60264L17.8838 16.6026L20.192 15.9453ZM18.1984 8.94526L20.508 8.29269C20.401 7.9143 20.2097 7.56507 19.9483 7.2713L18.1553 8.8667L16.3624 10.4621C16.1412 10.2135 15.9793 9.91802 15.8888 9.59784L18.1984 8.94526ZM18.1553 8.8667L19.9483 7.2713C19.6869 6.97754 19.3623 6.74689 18.9989 6.59672L18.0823 8.8148L17.1657 11.0329C16.8582 10.9058 16.5836 10.7107 16.3624 10.4621L18.1553 8.8667ZM18.0823 8.8148L18.9989 6.59672C18.6355 6.44655 18.2427 6.38076 17.8502 6.40431L17.9939 8.8L18.1377 11.1957C17.8056 11.2156 17.4732 11.16 17.1657 11.0329L18.0823 8.8148ZM17.9939 8.8L17.8502 6.40431C17.4577 6.42787 17.0756 6.54014 16.7328 6.73269L17.908 8.82526L19.0832 10.9178C18.7931 11.0808 18.4698 11.1758 18.1377 11.1957L17.9939 8.8ZM17.908 8.82526L16.7336 6.7322L14.7488 7.8458L15.9232 9.93886L17.0975 12.0319L19.0823 10.9183L17.908 8.82526ZM15.9232 9.93886L14.642 7.90946C14.0779 8.26554 13.6723 8.82475 13.509 9.47148L15.8359 10.0592L18.1628 10.647C18.0246 11.1941 17.6815 11.6671 17.2044 11.9683L15.9232 9.93886ZM15.8359 10.0592L13.509 9.47148C13.3456 10.1182 13.437 10.8029 13.7643 11.3842L15.8555 10.2066L17.9468 9.02911C18.2236 9.52075 18.301 10.1 18.1628 10.647L15.8359 10.0592ZM15.8555 10.2066L13.7643 11.3842C14.0916 11.9654 14.6297 12.3986 15.2673 12.5943L15.9714 10.2999L16.6754 8.00549C17.2148 8.171 17.67 8.53746 17.9468 9.02911L15.8555 10.2066ZM15.9714 10.2999L15.2673 12.5943C15.905 12.79 16.5935 12.7331 17.1905 12.4355L16.1196 10.2877L15.0487 8.13983C15.5536 7.88807 16.136 7.83998 16.6754 8.00549L15.9714 10.2999ZM16.1196 10.2877L17.2944 12.3805L19.058 11.3905L17.8832 9.29766L16.7084 7.20486L14.9448 8.19486L16.1196 10.2877ZM17.8832 9.29766L15.575 9.9551L17.4578 16.5655L19.766 15.9081L22.0742 15.2506L20.1914 8.64023L17.8832 9.29766ZM19.766 15.9081L18.5143 13.8603L15.3083 15.8199L16.56 17.8677L17.8116 19.9154L21.0176 17.9558L19.766 15.9081ZM16.56 17.8677L18.9414 17.57L18.1798 11.4776L15.7984 11.7753L13.4169 12.073L14.1785 18.1654L16.56 17.8677ZM15.7984 11.7753L18.1799 11.4779C18.0944 10.7936 17.7407 10.1713 17.1964 9.74783L15.7227 11.6421L14.249 13.5364C13.7885 13.1781 13.4892 12.6516 13.4169 12.0727L15.7984 11.7753ZM15.7227 11.6421L17.1964 9.74783C16.6521 9.32439 15.9619 9.13451 15.2776 9.21996L15.575 11.6015L15.8724 13.983C15.2934 14.0553 14.7095 13.8946 14.249 13.5364L15.7227 11.6421ZM15.575 11.6015L15.2776 9.21996C14.5933 9.30541 13.971 9.65919 13.5476 10.2035L15.4418 11.6772L17.3361 13.1509C16.9778 13.6114 16.4513 13.9107 15.8724 13.983L15.575 11.6015ZM15.4418 11.6772L13.5476 10.2035C13.1241 10.7478 12.9342 11.438 13.0197 12.1223L15.4012 11.8249L17.7827 11.5275C17.855 12.1064 17.6943 12.6904 17.3361 13.1509L15.4418 11.6772ZM15.4012 11.8249L13.0197 12.1225L13.7825 18.2261L16.164 17.9285L18.5455 17.6308L17.7827 11.5272L15.4012 11.8249ZM16.164 17.9285L16.796 15.6132L12.832 14.5312L12.2 16.8465L11.568 19.1618L15.532 20.2438L16.164 17.9285ZM12.2 16.8465H14.6V15.7545H12.2H9.79998V16.8465H12.2ZM12.2 15.7545H14.6C14.6 15.0649 14.3261 14.4036 13.8385 13.916L12.1414 15.613L10.4444 17.3101C10.0318 16.8975 9.79998 16.3379 9.79998 15.7545H12.2ZM12.1414 15.613L13.8385 13.916C13.3509 13.4284 12.6895 13.1545 12 13.1545V15.5545V17.9545C11.4165 17.9545 10.8569 17.7227 10.4444 17.3101L12.1414 15.613ZM12 15.5545V13.1545C11.3104 13.1545 10.6491 13.4284 10.1615 13.916L11.8586 15.613L13.5556 17.3101C13.143 17.7227 12.5835 17.9545 12 17.9545V15.5545ZM11.8586 15.613L10.1615 13.916C9.67391 14.4036 9.39998 15.0649 9.39998 15.7545H11.8H14.2C14.2 16.3379 13.9682 16.8975 13.5556 17.3101L11.8586 15.613ZM11.8 15.7545H9.39998V16.8465H11.8H14.2V15.7545H11.8ZM11.8 16.8465L11.1681 14.5311L7.20367 15.6131L7.83558 17.9285L8.4675 20.2438L12.4319 19.1618L11.8 16.8465ZM7.83558 17.9285L10.2171 18.2261L10.9799 12.1225L8.59838 11.8249L6.21691 11.5272L5.45411 17.6308L7.83558 17.9285ZM8.59838 11.8249L10.9799 12.1223C11.0222 11.7834 10.9974 11.4396 10.9068 11.1104L8.59276 11.747L6.27873 12.3836C6.2021 12.1051 6.18108 11.8141 6.21688 11.5275L8.59838 11.8249ZM8.59276 11.747L10.9068 11.1104C10.8162 10.7811 10.6617 10.473 10.452 10.2035L8.55775 11.6772L6.66349 13.1509C6.48611 12.9229 6.35536 12.6621 6.27873 12.3836L8.59276 11.747ZM8.55775 11.6772L10.452 10.2035C10.2424 9.93398 9.98166 9.70841 9.68481 9.53966L8.4987 11.6261L7.31259 13.7125C7.06143 13.5697 6.84087 13.3789 6.66349 13.1509L8.55775 11.6772ZM8.4987 11.6261L9.68481 9.53966C9.38797 9.3709 9.0608 9.26227 8.72197 9.21996L8.42458 11.6015L8.1272 13.983C7.84053 13.9472 7.56373 13.8553 7.31259 13.7125L8.4987 11.6261ZM8.42458 11.6015L8.72197 9.21996C8.38314 9.17765 8.0393 9.20249 7.71008 9.29306L8.3467 11.6071L8.98331 13.9211C8.70477 13.9977 8.41387 14.0188 8.1272 13.983L8.42458 11.6015ZM8.3467 11.6071L7.71008 9.29306C7.38088 9.38363 7.07271 9.53816 6.8032 9.74783L8.27689 11.6421L9.75058 13.5364C9.52256 13.7138 9.26183 13.8445 8.98331 13.9211L8.3467 11.6071ZM8.27689 11.6421L6.8032 9.74783C6.53369 9.9575 6.30813 10.2182 6.13938 10.515L8.22579 11.7012L10.3122 12.8873C10.1694 13.1384 9.9786 13.359 9.75058 13.5364L8.27689 11.6421ZM8.22579 11.7012L6.13938 10.515C5.97062 10.8119 5.86199 11.1391 5.81968 11.4779L8.20118 11.7753L10.5827 12.0727C10.5469 12.3593 10.455 12.6361 10.3122 12.8873L8.22579 11.7012ZM8.20118 11.7753L5.8197 11.4777L5.0585 17.5701L7.43999 17.8677L9.82147 18.1652L10.5827 12.0728L8.20118 11.7753ZM7.43999 17.8677L8.69145 15.8198L5.48545 13.8606L4.23398 15.9085L2.98251 17.9563L6.18852 19.9155L7.43999 17.8677ZM4.23398 15.9085L6.54217 16.5659L8.42497 9.95593L6.11678 9.29846L3.8086 8.641L1.9258 15.251L4.23398 15.9085ZM6.11678 9.29846L4.94198 11.3913L6.70558 12.3813L7.88038 10.2885L9.05519 8.19566L7.29159 7.20566L6.11678 9.29846ZM7.88038 10.2885L6.8095 12.4363C7.40645 12.7339 8.09494 12.7908 8.73263 12.5951L8.02859 10.3007L7.32455 8.00629C7.86396 7.84078 8.44633 7.88887 8.95127 8.14063L7.88038 10.2885ZM8.02859 10.3007L8.73263 12.5951C9.37031 12.3994 9.90842 11.9662 10.2357 11.385L8.14442 10.2074L6.05316 9.02991C6.32999 8.53826 6.78516 8.1718 7.32455 8.00629L8.02859 10.3007ZM8.14442 10.2074L10.2357 11.385C10.563 10.8037 10.6544 10.119 10.491 9.47228L8.1641 10.06L5.83719 10.6478C5.69901 10.1008 5.77632 9.52155 6.05316 9.02991L8.14442 10.2074ZM8.1641 10.06L10.491 9.47228C10.3277 8.82556 9.92204 8.26635 9.358 7.91026L8.07679 9.93966L6.79557 11.9691C6.31847 11.6679 5.97536 11.1948 5.83719 10.6478L8.1641 10.06ZM8.07679 9.93966L9.25127 7.84668L7.26607 6.73268L6.09158 8.82566L4.9171 10.9186L6.9023 12.0326L8.07679 9.93966ZM6.09158 8.82566L7.28412 6.74291C6.93975 6.54573 6.55479 6.43005 6.15876 6.40473L6.00566 8.79984L5.85256 11.195C5.517 11.1735 5.19083 11.0755 4.89905 10.9084L6.09158 8.82566ZM6.00566 8.79984L6.15876 6.40473C5.76273 6.37942 5.36617 6.44515 4.9995 6.59687L5.91714 8.81451L6.83479 11.0322C6.52411 11.1607 6.18811 11.2164 5.85256 11.195L6.00566 8.79984ZM5.91714 8.81451L4.9995 6.59687C4.63282 6.7486 4.30577 6.9823 4.04342 7.28004L5.84414 8.86668L7.64486 10.4533C7.42258 10.7056 7.14547 10.9036 6.83479 11.0322L5.91714 8.81451ZM5.84414 8.86668L4.04342 7.28004C3.78107 7.57779 3.59041 7.93167 3.48606 8.31453L5.80158 8.94566L8.11711 9.5768C8.02869 9.90119 7.86715 10.201 7.64486 10.4533L5.84414 8.86668ZM5.80158 8.94566L3.49337 8.28829L1.49977 15.2883L3.80798 15.9457L6.1162 16.603L8.1098 9.60304L5.80158 8.94566ZM3.80798 15.9457L1.49919 15.2903C1.34422 15.8363 1.37215 16.418 1.57871 16.9466L3.8141 16.0731L6.04949 15.1996C6.22428 15.6468 6.24791 16.139 6.11678 16.601L3.80798 15.9457ZM3.8141 16.0731L1.57871 16.9466C1.78527 17.4752 2.15912 17.9217 2.64319 18.2179L3.89598 16.1709L5.14878 14.1238C5.55838 14.3745 5.87471 14.7523 6.04949 15.1996L3.8141 16.0731ZM3.89598 16.1709L2.6444 18.2187L6.244 20.4187L7.49558 18.3709L8.74717 16.323L5.14757 14.123L3.89598 16.1709Z" fill="#FAF3EB" mask="url(#path-2-inside-1_236_1412)"/>
<mask id="path-4-inside-2_236_1412" fill="white">
<path d="M11.8644 14.9472C11.9011 14.9811 11.9492 15 11.9992 15.0002C12.0491 15.0004 12.0974 14.9819 12.1344 14.9484C12.2676 14.8272 15.4 11.9528 15.4 8.99998C15.4 7.09318 13.9068 5.59998 12 5.59998C10.0932 5.59998 8.60001 7.09318 8.60001 8.99998C8.60001 11.9016 11.7312 14.824 11.8644 14.9472ZM12 5.99998C13.71 5.99998 15 7.28958 15 8.99998C15 11.4388 12.6028 13.9348 12.0012 14.5228C11.4008 13.928 9.00001 11.3992 9.00001 8.99998C9.00001 7.28958 10.29 5.99998 12 5.99998Z"/>
</mask>
<path d="M11.8644 14.9472L10.2348 16.7091L10.2365 16.7107L11.8644 14.9472ZM12.1344 14.9484L13.7465 16.7263L13.7496 16.7235L12.1344 14.9484ZM12.0012 14.5228L10.3121 16.2278L11.9898 17.8898L13.6788 16.2391L12.0012 14.5228ZM11.8644 14.9472L10.2365 16.7107C10.7139 17.1513 11.3389 17.3973 11.9885 17.4002L11.9992 15.0002L12.0098 12.6002C12.5595 12.6027 13.0884 12.8108 13.4923 13.1836L11.8644 14.9472ZM11.9992 15.0002L11.9885 17.4002C12.6381 17.4031 13.2653 17.1627 13.7465 16.7263L12.1344 14.9484L10.5223 13.1704C10.9295 12.8012 11.4602 12.5978 12.0098 12.6002L11.9992 15.0002ZM12.1344 14.9484L13.7496 16.7235C13.8739 16.6104 14.8238 15.736 15.7601 14.445C16.6472 13.2216 17.8 11.2501 17.8 8.99998H15.4H13C13 9.70266 12.5866 10.6447 11.8742 11.6271C11.211 12.5417 10.5281 13.1651 10.5192 13.1732L12.1344 14.9484ZM15.4 8.99998H17.8C17.8 5.76769 15.2323 3.19998 12 3.19998V5.59998V7.99998C12.5813 7.99998 13 8.41866 13 8.99998H15.4ZM12 5.59998V3.19998C8.76772 3.19998 6.20001 5.76769 6.20001 8.99998H8.60001H11C11 8.41866 11.4187 7.99998 12 7.99998V5.59998ZM8.60001 8.99998H6.20001C6.20001 11.2282 7.35703 13.2008 8.23556 14.4192C9.16727 15.7113 10.1123 16.5958 10.2348 16.7091L11.8644 14.9472L13.494 13.1853C13.4833 13.1753 12.7961 12.537 12.129 11.6118C11.4086 10.6128 11 9.67338 11 8.99998H8.60001ZM12 5.99998V8.39998C12.2355 8.39998 12.37 8.48144 12.4443 8.55571C12.5185 8.62994 12.6 8.76434 12.6 8.99998H15H17.4C17.4 5.96388 15.0353 3.59998 12 3.59998V5.99998ZM15 8.99998H12.6C12.6 9.50028 12.3211 10.2447 11.735 11.1155C11.1879 11.9286 10.5647 12.5708 10.3237 12.8064L12.0012 14.5228L13.6788 16.2391C14.0393 15.8868 14.9155 14.9869 15.7174 13.7953C16.4804 12.6615 17.4 10.9385 17.4 8.99998H15ZM12.0012 14.5228L13.6903 12.8178C13.4474 12.5771 12.8197 11.9225 12.2685 11.1009C11.6748 10.216 11.4 9.4756 11.4 8.99998H9.00001H6.60001C6.60001 10.9236 7.52564 12.6471 8.28246 13.7752C9.08173 14.9665 9.95466 15.8736 10.3121 16.2278L12.0012 14.5228ZM9.00001 8.99998H11.4C11.4 8.76434 11.4815 8.62994 11.5557 8.55571C11.63 8.48144 11.7645 8.39998 12 8.39998V5.99998V3.59998C8.96473 3.59998 6.60001 5.96388 6.60001 8.99998H9.00001Z" fill="#FAF3EB" mask="url(#path-4-inside-2_236_1412)"/>
<mask id="path-6-inside-3_236_1412" fill="white">
<path d="M13.8 8.99995C13.8 8.00755 12.9924 7.19995 12 7.19995C11.0076 7.19995 10.2 8.00755 10.2 8.99995C10.2 9.99235 11.0076 10.8 12 10.8C12.9924 10.8 13.8 9.99235 13.8 8.99995ZM12 10.4C11.228 10.4 10.6 9.77195 10.6 8.99995C10.6 8.22795 11.228 7.59995 12 7.59995C12.772 7.59995 13.4 8.22795 13.4 8.99995C13.4 9.77195 12.772 10.4 12 10.4Z"/>
</mask>
<path d="M13.8 8.99995H16.2C16.2 6.68207 14.3179 4.79995 12 4.79995V7.19995V9.59995C11.6669 9.59995 11.4 9.33303 11.4 8.99995H13.8ZM12 7.19995V4.79995C9.68213 4.79995 7.80001 6.68207 7.80001 8.99995H10.2H12.6C12.6 9.33303 12.3331 9.59995 12 9.59995V7.19995ZM10.2 8.99995H7.80001C7.80001 11.3178 9.68213 13.2 12 13.2V10.8V8.39995C12.3331 8.39995 12.6 8.66687 12.6 8.99995H10.2ZM12 10.8V13.2C14.3179 13.2 16.2 11.3178 16.2 8.99995H13.8H11.4C11.4 8.66687 11.6669 8.39995 12 8.39995V10.8ZM12 10.4V7.99995C12.5535 7.99995 13 8.44647 13 8.99995H10.6H8.20001C8.20001 11.0974 9.90253 12.8 12 12.8V10.4ZM10.6 8.99995H13C13 9.55343 12.5535 9.99995 12 9.99995V7.59995V5.19995C9.90253 5.19995 8.20001 6.90247 8.20001 8.99995H10.6ZM12 7.59995V9.99995C11.4465 9.99995 11 9.55343 11 8.99995H13.4H15.8C15.8 6.90247 14.0975 5.19995 12 5.19995V7.59995ZM13.4 8.99995H11C11 8.44647 11.4465 7.99995 12 7.99995V10.4V12.8C14.0975 12.8 15.8 11.0974 15.8 8.99995H13.4Z" fill="#FAF3EB" mask="url(#path-6-inside-3_236_1412)"/>
<defs>
<linearGradient id="paint0_linear_236_1412" x1="-6.77237e-10" y1="11.9588" x2="24.0001" y2="11.9954" gradientUnits="userSpaceOnUse">
<stop stop-color="#FFA656"/>
<stop offset="1" stop-color="#CF711C"/>
</linearGradient>
</defs>
</svg>
