<svg width="40" height="40" viewBox="0 0 40 40" fill="none" xmlns="http://www.w3.org/2000/svg">
<rect y="0.000488281" width="40" height="39.9994" rx="19.9997" fill="url(#paint0_linear_78_41)"/>
<path d="M20.0001 22.0005C22.2061 22.0005 24.0001 20.2065 24.0001 18.0005C24.0001 15.7945 22.2061 14.0005 20.0001 14.0005C17.7941 14.0005 16.0001 15.7945 16.0001 18.0005C16.0001 20.2065 17.7941 22.0005 20.0001 22.0005ZM20.0001 16.0005C21.1031 16.0005 22.0001 16.8975 22.0001 18.0005C22.0001 19.1035 21.1031 20.0005 20.0001 20.0005C18.8971 20.0005 18.0001 19.1035 18.0001 18.0005C18.0001 16.8975 18.8971 16.0005 20.0001 16.0005Z" fill="#FAF3EB"/>
<path d="M19.4201 29.8145C19.5894 29.9351 19.7922 29.9999 20.0001 29.9999C20.208 29.9999 20.4107 29.9351 20.5801 29.8145C20.8841 29.5995 28.0291 24.4405 28.0001 18.0005C28.0001 13.5895 24.4111 10.0005 20.0001 10.0005C15.5891 10.0005 12.0001 13.5895 12.0001 17.9955C11.9711 24.4405 19.1161 29.5995 19.4201 29.8145ZM20.0001 12.0005C23.3091 12.0005 26.0001 14.6915 26.0001 18.0055C26.0211 22.4435 21.6121 26.4285 20.0001 27.7355C18.3891 26.4275 13.9791 22.4415 14.0001 18.0005C14.0001 14.6915 16.6911 12.0005 20.0001 12.0005Z" fill="#FAF3EB"/>
<defs>
<linearGradient id="paint0_linear_78_41" x1="-1.12873e-09" y1="19.9315" x2="40.0001" y2="19.9926" gradientUnits="userSpaceOnUse">
<stop stop-color="#FFA656"/>
<stop offset="1" stop-color="#CF711C"/>
</linearGradient>
</defs>
</svg>
