<svg width="16" height="20" viewBox="0 0 16 20" fill="none" xmlns="http://www.w3.org/2000/svg">
<path d="M8.00012 12.0005C10.2061 12.0005 12.0001 10.2065 12.0001 8.00049C12.0001 5.79449 10.2061 4.00049 8.00012 4.00049C5.79412 4.00049 4.00012 5.79449 4.00012 8.00049C4.00012 10.2065 5.79412 12.0005 8.00012 12.0005ZM8.00012 6.00049C9.10312 6.00049 10.0001 6.89749 10.0001 8.00049C10.0001 9.10349 9.10312 10.0005 8.00012 10.0005C6.89712 10.0005 6.00012 9.10349 6.00012 8.00049C6.00012 6.89749 6.89712 6.00049 8.00012 6.00049Z" fill="#FAF3EB"/>
<path d="M7.42009 19.8145C7.58945 19.9351 7.79218 19.9999 8.00009 19.9999C8.20799 19.9999 8.41073 19.9351 8.58009 19.8145C8.88409 19.5995 16.0291 14.4405 16.0001 8.00049C16.0001 3.58949 12.4111 0.000488281 8.00009 0.000488281C3.58909 0.000488281 8.80377e-05 3.58949 8.80377e-05 7.99549C-0.028912 14.4405 7.11609 19.5995 7.42009 19.8145ZM8.00009 2.00049C11.3091 2.00049 14.0001 4.69149 14.0001 8.00549C14.0211 12.4435 9.61209 16.4285 8.00009 17.7355C6.38909 16.4275 1.97909 12.4415 2.00009 8.00049C2.00009 4.69149 4.69109 2.00049 8.00009 2.00049Z" fill="#FAF3EB"/>
</svg>
