<svg width="40" height="40" viewBox="0 0 40 40" fill="none" xmlns="http://www.w3.org/2000/svg">
<rect width="40" height="40" rx="20" fill="url(#paint0_linear_92_164)"/>
<path d="M14.0093 21.15C13.6693 21.15 13.3893 21.04 13.1693 20.82C12.9493 20.6 12.8393 20.33 12.8393 20.01C12.8393 19.69 12.9493 19.43 13.1693 19.23C13.3893 19.01 13.6693 18.9 14.0093 18.9H26.3093C26.6493 18.9 26.9293 19.01 27.1493 19.23C27.3693 19.45 27.4793 19.72 27.4793 20.04C27.4793 20.36 27.3693 20.63 27.1493 20.85C26.9293 21.05 26.6493 21.15 26.3093 21.15H14.0093ZM20.1293 27.42C19.7693 27.42 19.4593 27.3 19.1993 27.06C18.9593 26.82 18.8393 26.52 18.8393 26.16V13.77C18.8393 13.39 18.9593 13.08 19.1993 12.84C19.4593 12.6 19.7793 12.48 20.1593 12.48C20.5393 12.48 20.8393 12.6 21.0593 12.84C21.2993 13.08 21.4193 13.39 21.4193 13.77V26.13C21.4193 26.51 21.2993 26.82 21.0593 27.06C20.8193 27.3 20.5093 27.42 20.1293 27.42Z" fill="#FAF3EB"/>
<defs>
<linearGradient id="paint0_linear_92_164" x1="-1.12873e-09" y1="19.9313" x2="40.0001" y2="19.9924" gradientUnits="userSpaceOnUse">
<stop stop-color="#FFA656"/>
<stop offset="1" stop-color="#CF711C"/>
</linearGradient>
</defs>
</svg>
