<svg width="40" height="40" viewBox="0 0 40 40" fill="none" xmlns="http://www.w3.org/2000/svg">
<rect width="40" height="40" rx="20" fill="url(#paint0_linear_267_859)"/>
<path d="M29.381 18.4762H27.8095V14.2857C27.8095 13.73 27.5888 13.1971 27.1958 12.8042C26.8029 12.4112 26.27 12.1905 25.7143 12.1905H21.5238V10.619C21.5238 9.92443 21.2479 9.25827 20.7567 8.7671C20.2655 8.27593 19.5994 8 18.9048 8C18.2101 8 17.544 8.27593 17.0528 8.7671C16.5616 9.25827 16.2857 9.92443 16.2857 10.619V12.1905H12.0952C11.5395 12.1905 11.0066 12.4112 10.6137 12.8042C10.2207 13.1971 10 13.73 10 14.2857V18.2667H11.5714C13.1429 18.2667 14.4 19.5238 14.4 21.0952C14.4 22.6667 13.1429 23.9238 11.5714 23.9238H10V27.9048C10 28.4605 10.2207 28.9934 10.6137 29.3863C11.0066 29.7793 11.5395 30 12.0952 30H16.0762V28.4286C16.0762 26.8571 17.3333 25.6 18.9048 25.6C20.4762 25.6 21.7333 26.8571 21.7333 28.4286V30H25.7143C26.27 30 26.8029 29.7793 27.1958 29.3863C27.5888 28.9934 27.8095 28.4605 27.8095 27.9048V23.7143H29.381C30.0756 23.7143 30.7417 23.4384 31.2329 22.9472C31.7241 22.456 32 21.7899 32 21.0952C32 20.4006 31.7241 19.7345 31.2329 19.2433C30.7417 18.7521 30.0756 18.4762 29.381 18.4762Z" fill="#FAF3EB"/>
<defs>
<linearGradient id="paint0_linear_267_859" x1="-1.12873e-09" y1="19.9313" x2="40.0001" y2="19.9924" gradientUnits="userSpaceOnUse">
<stop stop-color="#FFA656"/>
<stop offset="1" stop-color="#CF711C"/>
</linearGradient>
</defs>
</svg>
