<svg width="13" height="23" viewBox="0 0 13 23" fill="none" xmlns="http://www.w3.org/2000/svg">
<path d="M4.74973 12.9205C4.74973 12.6605 4.83973 12.4405 5.01973 12.2605C5.19973 12.0805 5.40973 11.9905 5.64973 11.9905C6.56973 11.9305 7.38973 11.7005 8.10973 11.3005C8.82973 10.9005 9.39973 10.3605 9.81973 9.68049C10.2397 9.00049 10.4497 8.21049 10.4497 7.31049C10.4497 6.37049 10.2497 5.56049 9.84973 4.88049C9.46973 4.18049 8.94973 3.64049 8.28973 3.26049C7.62973 2.86049 6.87973 2.66049 6.03973 2.66049C5.21973 2.66049 4.44973 2.85049 3.72973 3.23049C3.00973 3.61049 2.40973 4.11049 1.92973 4.73049C1.76973 4.89049 1.57973 5.01049 1.35973 5.09049C1.15973 5.15049 0.939727 5.10049 0.699727 4.94049C0.459727 4.78049 0.319727 4.58049 0.279727 4.34049C0.239727 4.08049 0.309727 3.84049 0.489727 3.62049C1.12973 2.82049 1.93973 2.17049 2.91973 1.67049C3.89973 1.17049 4.93973 0.920486 6.03973 0.920486C7.19973 0.920486 8.24973 1.18049 9.18973 1.70049C10.1497 2.22049 10.9097 2.96049 11.4697 3.92049C12.0297 4.88049 12.3097 6.01049 12.3097 7.31049C12.3097 8.11049 12.1497 8.88049 11.8297 9.62049C11.5097 10.3605 11.0697 11.0205 10.5097 11.6005C9.94973 12.1805 9.29973 12.6405 8.55973 12.9805C7.81973 13.3205 7.01973 13.5105 6.15973 13.5505C6.09973 13.5505 6.11973 13.5405 6.21973 13.5205C6.31973 13.5005 6.41973 13.4405 6.51973 13.3405V16.4905C6.51973 16.7505 6.42973 16.9705 6.24973 17.1505C6.08973 17.3105 5.87973 17.3905 5.61973 17.3905C5.35973 17.3905 5.13973 17.3105 4.95973 17.1505C4.79973 16.9705 4.72973 16.7505 4.74973 16.4905V12.9205ZM5.64973 23.0005C5.30973 23.0005 5.03973 22.9005 4.83973 22.7005C4.65973 22.4805 4.56973 22.2005 4.56973 21.8605V21.2005C4.56973 20.8405 4.65973 20.5605 4.83973 20.3605C5.03973 20.1605 5.30973 20.0605 5.64973 20.0605H5.82973C6.18973 20.0605 6.44973 20.1605 6.60973 20.3605C6.78973 20.5605 6.87973 20.8405 6.87973 21.2005V21.8605C6.87973 22.2005 6.78973 22.4805 6.60973 22.7005C6.44973 22.9005 6.18973 23.0005 5.82973 23.0005H5.64973Z" fill="#FAF3EB"/>
</svg>
