<svg width="40" height="40" viewBox="0 0 40 40" fill="none" xmlns="http://www.w3.org/2000/svg">
<rect width="40" height="40" rx="20" fill="url(#paint0_linear_267_773)"/>
<path d="M18.7497 20.92C18.7497 20.66 18.8397 20.44 19.0197 20.26C19.1997 20.08 19.4097 19.99 19.6497 19.99C20.5697 19.93 21.3897 19.7 22.1097 19.3C22.8297 18.9 23.3997 18.36 23.8197 17.68C24.2397 17 24.4497 16.21 24.4497 15.31C24.4497 14.37 24.2497 13.56 23.8497 12.88C23.4697 12.18 22.9497 11.64 22.2897 11.26C21.6297 10.86 20.8797 10.66 20.0397 10.66C19.2197 10.66 18.4497 10.85 17.7297 11.23C17.0097 11.61 16.4097 12.11 15.9297 12.73C15.7697 12.89 15.5797 13.01 15.3597 13.09C15.1597 13.15 14.9397 13.1 14.6997 12.94C14.4597 12.78 14.3197 12.58 14.2797 12.34C14.2397 12.08 14.3097 11.84 14.4897 11.62C15.1297 10.82 15.9397 10.17 16.9197 9.67C17.8997 9.17 18.9397 8.92 20.0397 8.92C21.1997 8.92 22.2497 9.18 23.1897 9.7C24.1497 10.22 24.9097 10.96 25.4697 11.92C26.0297 12.88 26.3097 14.01 26.3097 15.31C26.3097 16.11 26.1497 16.88 25.8297 17.62C25.5097 18.36 25.0697 19.02 24.5097 19.6C23.9497 20.18 23.2997 20.64 22.5597 20.98C21.8197 21.32 21.0197 21.51 20.1597 21.55C20.0997 21.55 20.1197 21.54 20.2197 21.52C20.3197 21.5 20.4197 21.44 20.5197 21.34V24.49C20.5197 24.75 20.4297 24.97 20.2497 25.15C20.0897 25.31 19.8797 25.39 19.6197 25.39C19.3597 25.39 19.1397 25.31 18.9597 25.15C18.7997 24.97 18.7297 24.75 18.7497 24.49V20.92ZM19.6497 31C19.3097 31 19.0397 30.9 18.8397 30.7C18.6597 30.48 18.5697 30.2 18.5697 29.86V29.2C18.5697 28.84 18.6597 28.56 18.8397 28.36C19.0397 28.16 19.3097 28.06 19.6497 28.06H19.8297C20.1897 28.06 20.4497 28.16 20.6097 28.36C20.7897 28.56 20.8797 28.84 20.8797 29.2V29.86C20.8797 30.2 20.7897 30.48 20.6097 30.7C20.4497 30.9 20.1897 31 19.8297 31H19.6497Z" fill="#FAF3EB"/>
<defs>
<linearGradient id="paint0_linear_267_773" x1="-1.12873e-09" y1="19.9313" x2="40.0001" y2="19.9924" gradientUnits="userSpaceOnUse">
<stop stop-color="#FFA656"/>
<stop offset="1" stop-color="#CF711C"/>
</linearGradient>
</defs>
</svg>
