<svg width="20" height="20" viewBox="0 0 20 20" fill="none" xmlns="http://www.w3.org/2000/svg">
<path d="M3.09383 0C1.74134 0 0.387151 1.02155 0.387151 3.06464L3.09383 8.5129L5.79882 3.06464C5.79882 1.02155 4.44632 0 3.09383 0ZM15.0254 1.66001C14.7337 1.67236 14.4506 1.72812 14.2139 1.7792L14.3745 2.52833C14.6112 2.47512 14.8563 2.4415 15.0634 2.42618L15.0254 1.66001ZM3.09383 1.70258C3.84193 1.70258 4.44632 2.31253 4.44632 3.06464C4.44632 3.81803 3.84193 4.42671 3.09383 4.42671C2.347 4.42671 1.74134 3.81803 1.74134 3.06464C1.74134 2.31253 2.347 1.70258 3.09383 1.70258ZM15.8664 1.71109L15.7396 2.46448C15.9467 2.50833 16.1538 2.56323 16.3356 2.67305L16.7033 2.00053C16.4455 1.8622 16.1581 1.73791 15.8664 1.71109ZM13.4362 1.99627C13.1784 2.09758 12.9205 2.18824 12.7008 2.2772L13.0008 2.97951C13.2333 2.87991 13.4784 2.79308 13.6855 2.71987L13.4362 1.99627ZM17.3965 2.56664L16.8174 3.06464C16.9696 3.24001 17.0879 3.45624 17.1809 3.63075L17.8614 3.28598C17.7177 3.00718 17.5909 2.79606 17.3965 2.56664ZM11.9949 2.60495C11.7371 2.73732 11.5258 2.85523 11.2975 2.971L11.6695 3.64352C11.8893 3.51583 12.1302 3.39239 12.3246 3.29449L11.9949 2.60495ZM10.6298 3.36685C10.4057 3.4988 10.186 3.63075 9.97041 3.77547L10.3846 4.41394C10.5917 4.27773 10.8073 4.15004 11.0186 4.02234L10.6298 3.36685ZM18.1234 4.12876C17.8741 4.17132 17.6205 4.20111 17.3711 4.23091C17.388 4.44373 17.3753 4.67358 17.3331 4.85235L18.0727 5.02687C18.115 4.7204 18.153 4.40542 18.1234 4.12876ZM9.32798 4.20111C9.11665 4.34583 8.90955 4.49481 8.69823 4.63953L9.13779 5.26523C9.34066 5.11625 9.54776 4.97579 9.75486 4.83107L9.32798 4.20111ZM8.07692 5.09923C7.8656 5.25246 7.64582 5.42272 7.46407 5.56318L7.92477 6.17185C8.15723 6.00159 8.31784 5.8739 8.52916 5.71641L8.07692 5.09923ZM17.0795 5.43974C16.9527 5.63554 16.8047 5.83133 16.6568 5.98031L17.2105 6.51237C17.3922 6.29529 17.5866 6.07395 17.7219 5.85262L17.0795 5.43974ZM6.85968 6.0399C6.65258 6.20165 6.44548 6.36765 6.26374 6.52088L6.74556 7.11253C6.94421 6.94652 7.14708 6.77627 7.33305 6.64006L6.85968 6.0399ZM16.1327 6.4698C15.9383 6.62729 15.7354 6.78052 15.5494 6.90822L15.9848 7.53817C16.2088 7.38494 16.4286 7.21894 16.6188 7.0657L16.1327 6.4698ZM5.67625 7.01888C5.4776 7.18063 5.2874 7.35089 5.09298 7.51689L5.58749 8.10002C5.77768 7.93402 5.96788 7.76802 6.1623 7.60627L5.67625 7.01888ZM14.9281 7.31683C14.7126 7.44453 14.4886 7.57648 14.2857 7.68715L14.6492 8.36392C14.8774 8.22346 15.1352 8.10002 15.3254 7.97233L14.9281 7.31683ZM4.51395 8.02341C4.32375 8.19366 4.13779 8.36392 3.94759 8.53844L4.459 9.1088C4.64497 8.93854 4.83516 8.76828 5.02113 8.59803L4.51395 8.02341ZM13.6221 8.04043C13.3981 8.1511 13.1741 8.26602 12.9501 8.37669L13.2756 9.06624C13.5376 8.93854 13.732 8.83213 13.9687 8.72146L13.6221 8.04043ZM12.2697 8.69592C12.0372 8.80234 11.8132 8.90449 11.5765 9.00239L11.885 9.7047C12.1175 9.60255 12.35 9.49614 12.5824 9.38973L12.2697 8.69592ZM3.38969 9.06624C3.17413 9.25778 3.02409 9.40675 2.82756 9.59829L3.36433 10.1516C3.56298 9.96009 3.72358 9.79409 3.90955 9.63234L3.38969 9.06624ZM10.8833 9.31311C10.6509 9.41101 10.4184 9.51316 10.186 9.61106L10.4818 10.3219C10.7185 10.224 10.951 10.1218 11.1834 10.0197L10.8833 9.31311ZM9.48436 9.90901C9.2519 10.0112 9.01944 10.1133 8.78276 10.207L9.07861 10.9178C9.31107 10.8199 9.54776 10.7177 9.78022 10.6198L9.48436 9.90901ZM17.295 10.2155C15.9425 10.2155 14.59 11.237 14.59 13.2801L17.295 18.7284L20 13.2801C20 11.237 18.6475 10.2155 17.295 10.2155ZM8.08115 10.5049C7.84024 10.6156 7.58664 10.7177 7.37954 10.8071L7.67963 11.5137C7.92899 11.4073 8.16568 11.3051 8.37701 11.2115L8.08115 10.5049ZM6.67794 11.1093C6.4497 11.2157 6.18343 11.3349 5.98056 11.4286L6.29332 12.1266C6.54269 12.016 6.76247 11.9053 6.98225 11.8116L6.67794 11.1093ZM5.28318 11.7478C5.04649 11.8627 4.80135 11.9819 4.59003 12.0883L4.93238 12.7736C5.16061 12.6544 5.39729 12.5438 5.6044 12.4416L5.28318 11.7478ZM17.295 11.9181C18.0431 11.9181 18.6475 12.5267 18.6475 13.2801C18.6475 14.0335 18.0431 14.6422 17.295 14.6422C16.5469 14.6422 15.9425 14.0335 15.9425 13.2801C15.9425 12.5267 16.5469 11.9181 17.295 11.9181ZM3.90533 12.4416C3.68132 12.565 3.45731 12.6927 3.22908 12.8247L3.60947 13.4887C3.82502 13.361 4.0448 13.2418 4.26458 13.1226L3.90533 12.4416ZM2.56551 13.2376C2.3284 13.3738 2.09932 13.5568 1.90194 13.6887L2.36264 14.3017C2.5727 14.1484 2.79882 13.9909 2.97971 13.8803L2.56551 13.2376ZM1.30178 14.1995C1.0989 14.3868 0.898986 14.6039 0.743872 14.7869L1.32291 15.2849C1.48563 15.0849 1.62722 14.9359 1.81741 14.7656L1.30178 14.1995ZM10.5072 14.2548L10.5748 15.0168C10.7946 14.9784 11.0144 15.004 11.2342 15.038L11.3652 14.2846C11.0862 14.2421 10.7904 14.2123 10.5072 14.2548ZM8.93491 14.6805L9.22232 15.3913C9.4421 15.2934 9.67033 15.2168 9.90279 15.1444C9.82248 14.9018 9.76331 14.655 9.69991 14.4081C9.43364 14.4847 9.16737 14.5868 8.93491 14.6805ZM12.2105 14.6422L11.7794 15.2721C11.9569 15.4041 12.1302 15.5445 12.2697 15.7191L12.8445 15.2168C12.6289 14.9955 12.4641 14.7869 12.2105 14.6422ZM8.2164 15.0253C7.98394 15.1444 7.75993 15.2807 7.53593 15.4126L7.92054 16.0723C8.14032 15.9532 8.35588 15.8127 8.57143 15.6978L8.2164 15.0253ZM0.279374 15.4935C0.151733 15.7701 0.0481826 16.0681 0 16.332L0.748098 16.4639C0.793745 16.2213 0.859256 16.0468 0.955199 15.8382C0.723161 15.7361 0.501691 15.6127 0.279374 15.4935ZM6.87659 15.8255C6.66103 15.9659 6.4497 16.1064 6.23838 16.2511L6.66103 16.8896C6.87236 16.7491 7.07946 16.6044 7.29079 16.4639L6.87659 15.8255ZM13.3305 15.8766L12.6923 16.2937C12.8276 16.498 12.9586 16.7108 13.0811 16.9279L13.7405 16.5448C13.5926 16.3065 13.4869 16.0936 13.3305 15.8766ZM5.60862 16.6853C5.3973 16.8257 5.18597 16.9619 4.97887 17.1109L5.40152 17.7494C5.6044 17.6004 5.81995 17.46 6.0355 17.3152L5.60862 16.6853ZM0.756551 17.0896C0.511834 17.1407 0.265004 17.1833 0.0190195 17.2301C0.0633982 17.5281 0.182164 17.8175 0.289518 18.0473L0.976331 17.7153C0.884615 17.5025 0.797549 17.2812 0.756551 17.0896ZM14.1167 17.2088L13.4573 17.5919C13.5883 17.8217 13.7405 18.0686 13.8631 18.2644L14.5013 17.8515C14.3576 17.626 14.235 17.4131 14.1167 17.2088ZM4.35334 17.5281C4.14201 17.66 3.93491 17.7877 3.71513 17.9111L4.09129 18.5794C4.3153 18.4474 4.53931 18.3155 4.75486 18.175L4.35334 17.5281ZM1.33981 18.2219L0.819949 18.7837C1.05494 19.0093 1.34489 19.1583 1.66103 19.2264L1.83009 18.4815C1.64243 18.4432 1.46703 18.3496 1.33981 18.2219ZM3.0727 18.2346C2.86095 18.3325 2.64117 18.4091 2.41336 18.456L2.58664 19.2051C2.85799 19.1498 3.11327 19.0476 3.36855 18.9412L3.0727 18.2346ZM14.9197 18.4389L14.3322 18.9199C14.5139 19.1455 14.738 19.3626 14.9324 19.5158L15.4015 18.9114C15.2156 18.7667 15.0549 18.5922 14.9197 18.4389ZM15.9383 19.1838L15.7481 19.9287C16.082 19.9968 16.3314 20.0181 16.6441 19.984L16.5511 19.2221C16.344 19.2562 16.1412 19.2349 15.9383 19.1838Z" fill="#FAF3EB"/>
</svg>
