<svg width="40" height="40" viewBox="0 0 40 40" fill="none" xmlns="http://www.w3.org/2000/svg">
<rect width="40" height="40" rx="20" fill="url(#paint0_linear_150_56)"/>
<path d="M22.1185 18.8899H28.5V17.0734H23.7662L21.1508 13.7128C20.7585 13.2083 20.0523 12.8651 19.2415 12.8651C19.0062 12.8651 18.7969 12.8954 18.5877 12.9459L11.5 14.6514V19.8991H13.8538V16.1954L16.6131 15.5294L11.5 31H13.8538L17.6069 22.8156L20.6538 25.9541V31H23.0077V24.5312L19.7515 19.9495L20.7062 17.0532M21.9615 12.633C23.2692 12.633 24.3154 11.8257 24.3154 10.8165C24.3154 9.80734 23.2692 9 21.9615 9C20.6538 9 19.6077 9.80734 19.6077 10.8165C19.6077 11.8257 20.6538 12.633 21.9615 12.633Z" fill="#FAF3EB"/>
<defs>
<linearGradient id="paint0_linear_150_56" x1="-1.12873e-09" y1="19.9313" x2="40.0001" y2="19.9924" gradientUnits="userSpaceOnUse">
<stop stop-color="#FFA656"/>
<stop offset="1" stop-color="#CF711C"/>
</linearGradient>
</defs>
</svg>
