<svg width="18" height="22" viewBox="0 0 18 22" fill="none" xmlns="http://www.w3.org/2000/svg">
<path d="M11.1185 9.88991H17.5V8.07339H12.7662L10.1508 4.71284C9.75846 4.20826 9.05231 3.86514 8.24154 3.86514C8.00615 3.86514 7.79692 3.89541 7.58769 3.94587L0.5 5.65138V10.8991H2.85385V7.19541L5.61308 6.52936L0.5 22H2.85385L6.60692 13.8156L9.65385 16.9541V22H12.0077V15.5312L8.75154 10.9495L9.70615 8.05321M10.9615 3.63303C12.2692 3.63303 13.3154 2.82569 13.3154 1.81651C13.3154 0.807339 12.2692 0 10.9615 0C9.65385 0 8.60769 0.807339 8.60769 1.81651C8.60769 2.82569 9.65385 3.63303 10.9615 3.63303Z" fill="#FAF3EB"/>
</svg>
