<svg width="60" height="60" viewBox="0 0 60 60" fill="none" xmlns="http://www.w3.org/2000/svg">
<rect width="60" height="60" rx="20" fill="url(#paint0_linear_78_15)"/>
<mask id="path-2-inside-1_78_15" fill="white">
<path d="M18.739 45.9271C18.748 45.9331 18.76 45.9301 18.769 45.9361C18.8396 45.9758 18.9189 45.9978 19 46.0001C19.0446 46 19.089 45.994 19.132 45.9821L30 43.0161L40.868 45.9821C40.911 45.994 40.9554 46 41 46.0001C41.0808 45.9973 41.1597 45.975 41.23 45.9351C41.24 45.9301 41.251 45.9321 41.26 45.9261L50.26 40.4261C50.3531 40.3691 50.425 40.2833 50.4647 40.1816C50.5044 40.08 50.5098 39.9681 50.48 39.8631L45.496 22.3631C45.4754 22.2903 45.4386 22.2232 45.3883 22.1667C45.3381 22.1102 45.2757 22.0658 45.2058 22.037C45.1359 22.0081 45.0604 21.9954 44.9849 21.9999C44.9094 22.0045 44.8359 22.0261 44.77 22.0631L39.808 24.8471C39.6993 24.9157 39.6212 25.0234 39.5897 25.148C39.5582 25.2726 39.5758 25.4046 39.6389 25.5166C39.7019 25.6285 39.8056 25.712 39.9285 25.7497C40.0513 25.7874 40.184 25.7764 40.299 25.7191L44.708 23.2441L49.415 39.7701L41.4 44.6691L39.496 29.4381C39.4795 29.3064 39.4115 29.1867 39.3067 29.1052C39.202 29.0237 39.0692 28.9872 38.9375 29.0036C38.8058 29.02 38.686 29.0881 38.6046 29.1929C38.5231 29.2976 38.4865 29.4304 38.503 29.5621L40.41 44.8211L30.5 42.1161V39.3861C30.5 39.2535 30.4473 39.1263 30.3535 39.0325C30.2598 38.9388 30.1326 38.8861 30 38.8861C29.8674 38.8861 29.7402 38.9388 29.6464 39.0325C29.5527 39.1263 29.5 39.2535 29.5 39.3861V42.1161L19.589 44.8211L21.496 29.5621C21.5041 29.4969 21.4993 29.4307 21.4819 29.3674C21.4645 29.304 21.4347 29.2447 21.3944 29.1929C21.354 29.141 21.3039 29.0976 21.2468 29.0651C21.1896 29.0326 21.1267 29.0117 21.0615 29.0036C20.9963 28.9955 20.9301 29.0002 20.8668 29.0177C20.8034 29.0351 20.7441 29.0648 20.6922 29.1052C20.6404 29.1455 20.597 29.1957 20.5645 29.2528C20.532 29.3099 20.5111 29.3729 20.503 29.4381L18.6 44.6691L10.585 39.7711L15.292 23.2461L19.701 25.7211C19.816 25.7784 19.9486 25.7894 20.0715 25.7517C20.1943 25.714 20.298 25.6305 20.3611 25.5185C20.4241 25.4066 20.4417 25.2746 20.4103 25.15C20.3788 25.0254 20.3006 24.9177 20.192 24.8491L15.229 22.0641C15.1632 22.0265 15.0898 22.0044 15.0142 21.9995C14.9386 21.9947 14.8629 22.0073 14.7929 22.0362C14.7229 22.0652 14.6604 22.1098 14.6104 22.1666C14.5603 22.2235 14.5239 22.291 14.504 22.3641L9.51998 39.8641C9.49018 39.9691 9.49555 40.081 9.53527 40.1826C9.57499 40.2843 9.64689 40.3701 9.73998 40.4271L18.739 45.9271Z"/>
</mask>
<path d="M18.739 45.9271L22.0672 40.9348L21.9688 40.8692L21.8679 40.8076L18.739 45.9271ZM18.769 45.9361L15.4408 50.9284L15.6297 51.0544L15.8277 51.1657L18.769 45.9361ZM19 46.0001L18.8307 51.9977L18.921 52.0003L19.0114 52.0001L19 46.0001ZM19.132 45.9821L17.5523 40.1938L17.5444 40.1959L17.5365 40.1981L19.132 45.9821ZM30 43.0161L31.5797 37.2278L30 36.7967L28.4203 37.2278L30 43.0161ZM40.868 45.9821L42.4634 40.1981L42.4556 40.1959L42.4477 40.1938L40.868 45.9821ZM41 46.0001L40.9885 52.0001L41.0965 52.0003L41.2044 51.9966L41 46.0001ZM41.23 45.9351L38.5467 40.5685L38.4041 40.6398L38.2655 40.7186L41.23 45.9351ZM41.26 45.9261L38.1313 40.8064L38.0303 40.8681L37.9318 40.9338L41.26 45.9261ZM50.26 40.4261L53.3887 45.5458L53.392 45.5438L50.26 40.4261ZM50.48 39.8631L56.252 38.2248L56.2505 38.2197L50.48 39.8631ZM45.496 22.3631L39.722 23.9945L39.7254 24.0065L45.496 22.3631ZM44.77 22.0631L47.7058 27.2958L47.708 27.2945L44.77 22.0631ZM39.808 24.8471L36.8721 19.6144L36.7365 19.6905L36.6049 19.7736L39.808 24.8471ZM40.299 25.7191L42.9762 31.0887L43.1078 31.0231L43.236 30.9511L40.299 25.7191ZM44.708 23.2441L50.4785 21.6005L48.397 14.2926L41.771 18.0121L44.708 23.2441ZM49.415 39.7701L52.5441 44.8895L56.4345 42.5116L55.1855 38.1265L49.415 39.7701ZM41.4 44.6691L35.4463 45.4134L36.5992 54.6355L44.5291 49.7885L41.4 44.6691ZM39.496 29.4381L33.5422 30.1816L33.5423 30.1824L39.496 29.4381ZM38.503 29.5621L32.5492 30.3056L32.5493 30.3062L38.503 29.5621ZM40.41 44.8211L38.83 50.6093L47.4749 52.969L46.3637 44.077L40.41 44.8211ZM30.5 42.1161H24.5V46.6979L28.92 47.9043L30.5 42.1161ZM29.5 42.1161L31.0798 47.9044L35.5 46.698V42.1161H29.5ZM19.589 44.8211L13.6353 44.077L12.524 52.9688L21.1688 50.6094L19.589 44.8211ZM21.496 29.5621L27.4497 30.3062L27.4497 30.3056L21.496 29.5621ZM20.503 29.4381L26.4567 30.182L26.4567 30.1816L20.503 29.4381ZM18.6 44.6691L15.4713 49.7888L23.4015 54.635L24.5537 45.413L18.6 44.6691ZM10.585 39.7711L4.8145 38.1274L3.56531 42.513L7.4563 44.8908L10.585 39.7711ZM15.292 23.2461L18.229 18.0141L11.6031 14.2946L9.5215 21.6024L15.292 23.2461ZM19.701 25.7211L16.764 30.9531L16.8922 31.0251L17.0238 31.0907L19.701 25.7211ZM20.192 24.8491L23.395 19.7756L23.2637 19.6927L23.1282 19.6166L20.192 24.8491ZM15.229 22.0641L12.2476 27.271L12.2701 27.2839L12.2928 27.2966L15.229 22.0641ZM14.504 22.3641L20.2745 24.0075L20.2838 23.9748L20.2928 23.9419L14.504 22.3641ZM9.51998 39.8641L3.74944 38.2206L3.74798 38.2258L9.51998 39.8641ZM9.73998 40.4271L6.60798 45.5448L6.61102 45.5466L9.73998 40.4271ZM18.739 45.9271L15.4108 50.9194C15.5878 51.0374 15.7637 51.1411 15.9358 51.2321C16.1076 51.323 16.2737 51.4002 16.4309 51.4658C16.5879 51.5313 16.7356 51.5852 16.8711 51.6297C17.0063 51.6742 17.1305 51.7097 17.2403 51.7381C17.3498 51.7665 17.4477 51.7886 17.5301 51.8057C17.6123 51.8227 17.6829 51.8356 17.7375 51.845C17.7917 51.8542 17.8357 51.861 17.8624 51.865C17.8761 51.867 17.8872 51.8687 17.894 51.8697C17.8975 51.8702 17.9004 51.8706 17.9022 51.8708C17.9031 51.871 17.9038 51.8711 17.9043 51.8711C17.9048 51.8712 17.9052 51.8713 17.9052 51.8713C17.9064 51.8714 17.9016 51.8708 17.896 51.8699C17.8898 51.869 17.8793 51.8675 17.8663 51.8656C17.8409 51.8618 17.7982 51.8552 17.7454 51.8461C17.6921 51.837 17.6227 51.8244 17.5418 51.8076C17.4607 51.7908 17.3641 51.769 17.2558 51.7409C17.1473 51.7128 17.0244 51.6777 16.8904 51.6336C16.7562 51.5895 16.6096 51.5361 16.4539 51.4711C16.2979 51.4059 16.133 51.3293 15.9623 51.2391C15.7914 51.1487 15.6167 51.0457 15.4408 50.9284L18.769 45.9361L22.0972 40.9438C21.9201 40.8258 21.7443 40.7221 21.5722 40.6311C21.4003 40.5402 21.2343 40.463 21.0771 40.3974C20.9201 40.3319 20.7723 40.278 20.6369 40.2335C20.5016 40.189 20.3775 40.1535 20.2677 40.1251C20.1581 40.0967 20.0603 40.0746 19.9779 40.0575C19.8957 40.0405 19.825 40.0276 19.7704 40.0182C19.7163 40.009 19.6723 40.0022 19.6456 39.9982C19.6319 39.9962 19.6208 39.9945 19.6139 39.9935C19.6104 39.993 19.6076 39.9926 19.6058 39.9924C19.6049 39.9922 19.6041 39.9921 19.6036 39.9921C19.6032 39.992 19.6028 39.9919 19.6027 39.9919C19.6016 39.9918 19.6063 39.9924 19.612 39.9933C19.6181 39.9942 19.6286 39.9957 19.6416 39.9976C19.667 40.0014 19.7097 40.008 19.7626 40.0171C19.8159 40.0262 19.8853 40.0388 19.9662 40.0556C20.0473 40.0724 20.1438 40.0942 20.2521 40.1223C20.3606 40.1504 20.4835 40.1855 20.6175 40.2296C20.7517 40.2737 20.8983 40.3271 21.0541 40.3921C21.2101 40.4573 21.3749 40.5339 21.5456 40.6241C21.7165 40.7145 21.8913 40.8175 22.0672 40.9348L18.739 45.9271ZM18.769 45.9361L15.8277 51.1657C16.7465 51.6825 17.7771 51.968 18.8307 51.9977L19 46.0001L19.1693 40.0025C20.0608 40.0277 20.9328 40.2692 21.7103 40.7065L18.769 45.9361ZM19 46.0001L19.0114 52.0001C19.5913 51.999 20.1684 51.9203 20.7274 51.7661L19.132 45.9821L17.5365 40.1981C18.0096 40.0676 18.4979 40.001 18.9885 40.0001L19 46.0001ZM19.132 45.9821L20.7117 51.7704L31.5797 48.8044L30 43.0161L28.4203 37.2278L17.5523 40.1938L19.132 45.9821ZM30 43.0161L28.4203 48.8044L39.2883 51.7704L40.868 45.9821L42.4477 40.1938L31.5797 37.2278L30 43.0161ZM40.868 45.9821L39.2725 51.7661C39.8316 51.9203 40.4087 51.999 40.9885 52.0001L41 46.0001L41.0114 40.0001C41.5021 40.001 41.9904 40.0676 42.4634 40.1981L40.868 45.9821ZM41 46.0001L41.2044 51.9966C42.2548 51.9608 43.2808 51.6708 44.1944 51.1516L41.23 45.9351L38.2655 40.7186C39.0386 40.2792 39.9068 40.0339 40.7955 40.0036L41 46.0001ZM41.23 45.9351L43.9133 51.3017C43.3766 51.57 42.907 51.7032 42.6175 51.7716C42.475 51.8053 42.3612 51.8265 42.3043 51.8368C42.2712 51.8427 42.198 51.8551 42.2548 51.8455C42.2759 51.8419 42.3652 51.8267 42.478 51.8031C42.5951 51.7786 42.7678 51.7389 42.9734 51.6774C43.3957 51.551 43.9748 51.3273 44.5882 50.9184L41.26 45.9261L37.9318 40.9338C38.5406 40.5279 39.115 40.3062 39.5324 40.1813C39.7355 40.1205 39.9058 40.0814 40.0203 40.0575C40.1306 40.0344 40.2174 40.0197 40.2359 40.0165C40.2419 40.0155 40.2466 40.0147 40.247 40.0146C40.249 40.0143 40.2446 40.015 40.241 40.0156C40.2329 40.017 40.2091 40.021 40.1787 40.0265C40.1192 40.0372 40.0028 40.059 39.8577 40.0933C39.5631 40.1629 39.0884 40.2977 38.5467 40.5685L41.23 45.9351ZM41.26 45.9261L44.3887 51.0458L53.3887 45.5458L50.26 40.4261L47.1313 35.3064L38.1313 40.8064L41.26 45.9261ZM50.26 40.4261L53.392 45.5438C54.6021 44.8032 55.5368 43.6869 56.0532 42.3654L50.4647 40.1816L44.8762 37.9978C45.3132 36.8796 46.104 35.9351 47.128 35.3084L50.26 40.4261ZM50.4647 40.1816L56.0532 42.3654C56.5696 41.0439 56.6394 39.5897 56.252 38.2248L50.48 39.8631L44.708 41.5014C44.3802 40.3465 44.4393 39.116 44.8762 37.9978L50.4647 40.1816ZM50.48 39.8631L56.2505 38.2197L51.2665 20.7197L45.496 22.3631L39.7254 24.0065L44.7094 41.5065L50.48 39.8631ZM45.496 22.3631L51.2699 20.7317C51.0026 19.7857 50.5242 18.9126 49.8708 18.1782L45.3883 22.1667L40.9059 26.1552C40.353 25.5337 39.9482 24.795 39.722 23.9945L45.496 22.3631ZM45.3883 22.1667L49.8708 18.1782C49.2173 17.4438 48.4057 16.8672 47.4972 16.4917L45.2058 22.037L42.9144 27.5822C42.1456 27.2645 41.4589 26.7766 40.9059 26.1552L45.3883 22.1667ZM45.2058 22.037L47.4972 16.4917C46.5887 16.1163 45.6068 15.9518 44.6255 16.0107L44.9849 21.9999L45.3442 27.9892C44.5139 28.039 43.6831 27.8998 42.9144 27.5822L45.2058 22.037ZM44.9849 21.9999L44.6255 16.0107C43.6442 16.0696 42.6891 16.3503 41.8319 16.8317L44.77 22.0631L47.708 27.2945C46.9828 27.7018 46.1746 27.9394 45.3442 27.9892L44.9849 21.9999ZM44.77 22.0631L41.8341 16.8304L36.8721 19.6144L39.808 24.8471L42.7438 30.0798L47.7058 27.2958L44.77 22.0631ZM39.808 24.8471L36.6049 19.7736C35.1949 20.6638 34.1808 22.0618 33.7724 23.6786L39.5897 25.148L45.407 26.6175C45.0615 27.9851 44.2037 29.1676 43.011 29.9206L39.808 24.8471ZM39.5897 25.148L33.7724 23.6786C33.364 25.2954 33.5925 27.0073 34.4107 28.4604L39.6389 25.5166L44.8671 22.5727C45.5591 23.8018 45.7524 25.2499 45.407 26.6175L39.5897 25.148ZM39.6389 25.5166L34.4107 28.4604C35.2289 29.9135 36.5742 30.9966 38.1684 31.4857L39.9285 25.7497L41.6886 20.0137C43.037 20.4274 44.175 21.3436 44.8671 22.5727L39.6389 25.5166ZM39.9285 25.7497L38.1684 31.4857C39.7626 31.9749 41.4838 31.8328 42.9762 31.0887L40.299 25.7191L37.6218 20.3495C38.8841 19.7201 40.34 19.5999 41.6886 20.0137L39.9285 25.7497ZM40.299 25.7191L43.236 30.9511L47.645 28.4761L44.708 23.2441L41.771 18.0121L37.362 20.4871L40.299 25.7191ZM44.708 23.2441L38.9375 24.8877L43.6445 41.4137L49.415 39.7701L55.1855 38.1265L50.4785 21.6005L44.708 23.2441ZM49.415 39.7701L46.2858 34.6507L38.2708 39.5497L41.4 44.6691L44.5291 49.7885L52.5441 44.8895L49.415 39.7701ZM41.4 44.6691L47.3536 43.9248L45.4496 28.6938L39.496 29.4381L33.5423 30.1824L35.4463 45.4134L41.4 44.6691ZM39.496 29.4381L45.4497 28.6946C45.2361 26.9839 44.3517 25.4281 42.9909 24.3695L39.3067 29.1052L35.6225 33.8408C34.4713 32.9452 33.723 31.6289 33.5422 30.1816L39.496 29.4381ZM39.3067 29.1052L42.9909 24.3695C41.6302 23.3109 39.9047 22.8362 38.194 23.0498L38.9375 29.0036L39.6809 34.9574C38.2336 35.1381 36.7737 34.7365 35.6225 33.8408L39.3067 29.1052ZM38.9375 29.0036L38.194 23.0498C36.4833 23.2635 34.9275 24.1479 33.8689 25.5086L38.6046 29.1929L43.3402 32.8771C42.4446 34.0283 41.1283 34.7766 39.6809 34.9574L38.9375 29.0036ZM38.6046 29.1929L33.8689 25.5086C32.8103 26.8694 32.3356 28.5949 32.5492 30.3056L38.503 29.5621L44.4567 28.8186C44.6375 30.2659 44.2359 31.7258 43.3402 32.8771L38.6046 29.1929ZM38.503 29.5621L32.5493 30.3062L34.4563 45.5652L40.41 44.8211L46.3637 44.077L44.4567 28.818L38.503 29.5621ZM40.41 44.8211L41.9899 39.0329L32.0799 36.3279L30.5 42.1161L28.92 47.9043L38.83 50.6093L40.41 44.8211ZM30.5 42.1161H36.5V39.3861H30.5H24.5V42.1161H30.5ZM30.5 39.3861H36.5C36.5 37.6622 35.8152 36.0089 34.5962 34.7899L30.3535 39.0325L26.1109 43.2752C25.0794 42.2437 24.5 40.8448 24.5 39.3861H30.5ZM30.3535 39.0325L34.5962 34.7899C33.3772 33.5709 31.7239 32.8861 30 32.8861V38.8861V44.8861C28.5413 44.8861 27.1424 44.3066 26.1109 43.2752L30.3535 39.0325ZM30 38.8861V32.8861C28.2761 32.8861 26.6228 33.5709 25.4038 34.7899L29.6464 39.0325L33.8891 43.2752C32.8576 44.3066 31.4587 44.8861 30 44.8861V38.8861ZM29.6464 39.0325L25.4038 34.7899C24.1848 36.0089 23.5 37.6622 23.5 39.3861H29.5H35.5C35.5 40.8448 34.9205 42.2437 33.8891 43.2752L29.6464 39.0325ZM29.5 39.3861H23.5V42.1161H29.5H35.5V39.3861H29.5ZM29.5 42.1161L27.9202 36.3278L18.0092 39.0328L19.589 44.8211L21.1688 50.6094L31.0798 47.9044L29.5 42.1161ZM19.589 44.8211L25.5427 45.5652L27.4497 30.3062L21.496 29.5621L15.5423 28.818L13.6353 44.077L19.589 44.8211ZM21.496 29.5621L27.4497 30.3056C27.5555 29.4585 27.4934 28.5989 27.267 27.7759L21.4819 29.3674L15.6968 30.9589C15.5053 30.2626 15.4527 29.5353 15.5422 28.8186L21.496 29.5621ZM21.4819 29.3674L27.267 27.7759C27.0405 26.9528 26.6542 26.1824 26.1301 25.5086L21.3944 29.1929L16.6587 32.8771C16.2153 32.3071 15.8884 31.6553 15.6968 30.9589L21.4819 29.3674ZM21.3944 29.1929L26.1301 25.5086C25.6059 24.8349 24.9542 24.271 24.212 23.8491L21.2468 29.0651L18.2815 34.2812C17.6536 33.9242 17.1022 33.4471 16.6587 32.8771L21.3944 29.1929ZM21.2468 29.0651L24.212 23.8491C23.4699 23.4272 22.652 23.1556 21.8049 23.0498L21.0615 29.0036L20.318 34.9574C19.6013 34.8679 18.9093 34.6381 18.2815 34.2812L21.2468 29.0651ZM21.0615 29.0036L21.8049 23.0498C20.9579 22.9441 20.0983 23.0062 19.2752 23.2326L20.8668 29.0177L22.4583 34.8027C21.7619 34.9943 21.0347 35.0469 20.318 34.9574L21.0615 29.0036ZM20.8668 29.0177L19.2752 23.2326C18.4522 23.459 17.6818 23.8453 17.008 24.3695L20.6922 29.1052L24.3765 33.8408C23.8064 34.2843 23.1546 34.6112 22.4583 34.8027L20.8668 29.0177ZM20.6922 29.1052L17.008 24.3695C16.3342 24.8937 15.7703 25.5454 15.3485 26.2875L20.5645 29.2528L25.7805 32.2181C25.4236 32.8459 24.9465 33.3974 24.3765 33.8408L20.6922 29.1052ZM20.5645 29.2528L15.3485 26.2875C14.9266 27.0297 14.655 27.8476 14.5492 28.6946L20.503 29.4381L26.4567 30.1816C26.3672 30.8982 26.1375 31.5902 25.7805 32.2181L20.5645 29.2528ZM20.503 29.4381L14.5493 28.6942L12.6463 43.9252L18.6 44.6691L24.5537 45.413L26.4567 30.182L20.503 29.4381ZM18.6 44.6691L21.7287 39.5494L13.7137 34.6514L10.585 39.7711L7.4563 44.8908L15.4713 49.7888L18.6 44.6691ZM10.585 39.7711L16.3555 41.4148L21.0624 24.8898L15.292 23.2461L9.5215 21.6024L4.8145 38.1274L10.585 39.7711ZM15.292 23.2461L12.355 28.4781L16.764 30.9531L19.701 25.7211L22.638 20.4891L18.229 18.0141L15.292 23.2461ZM19.701 25.7211L17.0238 31.0907C18.5161 31.8348 20.2374 31.9769 21.8316 31.4877L20.0715 25.7517L18.3114 20.0157C19.6599 19.6019 21.1158 19.7221 22.3782 20.3515L19.701 25.7211ZM20.0715 25.7517L21.8316 31.4877C23.4258 30.9986 24.7711 29.9155 25.5892 28.4624L20.3611 25.5185L15.1329 22.5747C15.825 21.3456 16.9629 20.4294 18.3114 20.0157L20.0715 25.7517ZM20.3611 25.5185L25.5892 28.4624C26.4074 27.0093 26.6359 25.2974 26.2276 23.6806L20.4103 25.15L14.593 26.6195C14.2475 25.2519 14.4408 23.8038 15.1329 22.5747L20.3611 25.5185ZM20.4103 25.15L26.2276 23.6806C25.8192 22.0639 24.8051 20.6658 23.395 19.7756L20.192 24.8491L16.9889 29.9226C15.7962 29.1696 14.9384 27.987 14.593 26.6195L20.4103 25.15ZM20.192 24.8491L23.1282 19.6166L18.1652 16.8316L15.229 22.0641L12.2928 27.2966L17.2558 30.0816L20.192 24.8491ZM15.229 22.0641L18.2103 16.8572C17.3494 16.3643 16.387 16.0751 15.3969 16.0118L15.0142 21.9995L14.6314 27.9873C13.7925 27.9337 12.9771 27.6886 12.2476 27.271L15.229 22.0641ZM15.0142 21.9995L15.3969 16.0118C14.4068 15.9485 13.4154 16.1128 12.4988 16.4921L14.7929 22.0362L17.087 27.5803C16.3103 27.9017 15.4703 28.0409 14.6314 27.9873L15.0142 21.9995ZM14.7929 22.0362L12.4988 16.4921C11.5821 16.8714 10.7644 17.4557 10.1086 18.2L14.6104 22.1666L19.1122 26.1332C18.5565 26.7639 17.8637 27.2589 17.087 27.5803L14.7929 22.0362ZM14.6104 22.1666L10.1086 18.2C9.4527 18.9444 8.97605 19.8291 8.71516 20.7863L14.504 22.3641L20.2928 23.9419C20.0717 24.7529 19.6679 25.5025 19.1122 26.1332L14.6104 22.1666ZM14.504 22.3641L8.73344 20.7207L3.74944 38.2207L9.51998 39.8641L15.2905 41.5075L20.2745 24.0075L14.504 22.3641ZM9.51998 39.8641L3.74798 38.2258C3.36057 39.5907 3.43039 41.0449 3.94679 42.3664L9.53527 40.1826L15.1238 37.9988C15.5607 39.117 15.6198 40.3475 15.292 41.5024L9.51998 39.8641ZM9.53527 40.1826L3.94679 42.3664C4.46319 43.6879 5.39781 44.8042 6.60798 45.5448L9.73998 40.4271L12.872 35.3094C13.896 35.9361 14.6868 36.8806 15.1238 37.9988L9.53527 40.1826ZM9.73998 40.4271L6.61102 45.5466L15.61 51.0466L18.739 45.9271L21.8679 40.8076L12.8689 35.3076L9.73998 40.4271Z" fill="#FAF3EB" mask="url(#path-2-inside-1_78_15)"/>
<mask id="path-4-inside-2_78_15" fill="white">
<path d="M29.661 37.368C29.7528 37.4527 29.873 37.5 29.9979 37.5006C30.1228 37.5011 30.2435 37.4549 30.336 37.371C30.669 37.068 38.5 29.882 38.5 22.5C38.5 17.733 34.767 14 30 14C25.233 14 21.5 17.733 21.5 22.5C21.5 29.754 29.328 37.06 29.661 37.368ZM30 15C34.275 15 37.5 18.224 37.5 22.5C37.5 28.597 31.507 34.837 30.003 36.307C28.502 34.82 22.5 28.498 22.5 22.5C22.5 18.224 25.725 15 30 15Z"/>
</mask>
<path d="M29.661 37.368L25.5869 41.7728L25.5913 41.7768L29.661 37.368ZM30.336 37.371L34.3663 41.8158L34.374 41.8088L30.336 37.371ZM30.003 36.307L25.7803 40.5695L29.9746 44.7247L34.1969 40.5979L30.003 36.307ZM29.661 37.368L25.5913 41.7768C26.7847 42.8784 28.3472 43.4933 29.9713 43.5005L29.9979 37.5006L30.0246 31.5007C31.3988 31.5068 32.7209 32.0271 33.7307 32.9592L29.661 37.368ZM29.9979 37.5006L29.9713 43.5005C31.5953 43.5078 33.1632 42.9067 34.3663 41.8158L30.336 37.371L26.3057 32.9262C27.3237 32.0031 28.6504 31.4945 30.0246 31.5007L29.9979 37.5006ZM30.336 37.371L34.374 41.8088C34.6847 41.5262 37.0596 39.3401 39.4002 36.1125C41.618 33.0541 44.5 28.1253 44.5 22.5H38.5H32.5C32.5 24.2567 31.4665 26.6119 29.6856 29.0678C28.0274 31.3544 26.3203 32.9128 26.298 32.9332L30.336 37.371ZM38.5 22.5H44.5C44.5 14.4193 38.0807 8 30 8V14V20C31.4533 20 32.5 21.0467 32.5 22.5H38.5ZM30 14V8C21.9193 8 15.5 14.4193 15.5 22.5H21.5H27.5C27.5 21.0467 28.5467 20 30 20V14ZM21.5 22.5H15.5C15.5 28.0705 18.3926 33.0021 20.5889 36.048C22.9182 39.2783 25.2808 41.4896 25.5869 41.7728L29.661 37.368L33.7351 32.9632C33.7082 32.9384 31.9903 31.3427 30.3224 29.0295C28.5214 26.5319 27.5 24.1835 27.5 22.5H21.5ZM30 15V21C30.5889 21 30.925 21.2037 31.1107 21.3893C31.2963 21.5749 31.5 21.9109 31.5 22.5H37.5H43.5C43.5 14.9098 37.5882 9 30 9V15ZM37.5 22.5H31.5C31.5 23.7508 30.8026 25.6118 29.3376 27.7889C27.9698 29.8216 26.4118 31.427 25.8091 32.0161L30.003 36.307L34.1969 40.5979C35.0982 39.7169 37.2887 37.4674 39.2934 34.4883C41.2009 31.6537 43.5 27.3462 43.5 22.5H37.5ZM30.003 36.307L34.2257 32.0445C33.6184 31.4428 32.0492 29.8063 30.6711 27.7523C29.1869 25.5401 28.5 23.6891 28.5 22.5H22.5H16.5C16.5 27.3089 18.8141 31.6179 20.7061 34.438C22.7043 37.4162 24.8866 39.6842 25.7803 40.5695L30.003 36.307ZM22.5 22.5H28.5C28.5 21.9109 28.7037 21.5749 28.8893 21.3893C29.075 21.2037 29.4111 21 30 21V15V9C22.4118 9 16.5 14.9098 16.5 22.5H22.5Z" fill="#FAF3EB" mask="url(#path-4-inside-2_78_15)"/>
<mask id="path-6-inside-3_78_15" fill="white">
<path d="M34.5 22.5C34.5 20.019 32.481 18 30 18C27.519 18 25.5 20.019 25.5 22.5C25.5 24.981 27.519 27 30 27C32.481 27 34.5 24.981 34.5 22.5ZM30 26C28.07 26 26.5 24.43 26.5 22.5C26.5 20.57 28.07 19 30 19C31.93 19 33.5 20.57 33.5 22.5C33.5 24.43 31.93 26 30 26Z"/>
</mask>
<path d="M34.5 22.5H40.5C40.5 16.7053 35.7947 12 30 12V18V24C29.1673 24 28.5 23.3327 28.5 22.5H34.5ZM30 18V12C24.2053 12 19.5 16.7053 19.5 22.5H25.5H31.5C31.5 23.3327 30.8327 24 30 24V18ZM25.5 22.5H19.5C19.5 28.2947 24.2053 33 30 33V27V21C30.8327 21 31.5 21.6673 31.5 22.5H25.5ZM30 27V33C35.7947 33 40.5 28.2947 40.5 22.5H34.5H28.5C28.5 21.6673 29.1673 21 30 21V27ZM30 26V20C31.3837 20 32.5 21.1163 32.5 22.5H26.5H20.5C20.5 27.7437 24.7563 32 30 32V26ZM26.5 22.5H32.5C32.5 23.8837 31.3837 25 30 25V19V13C24.7563 13 20.5 17.2563 20.5 22.5H26.5ZM30 19V25C28.6163 25 27.5 23.8837 27.5 22.5H33.5H39.5C39.5 17.2563 35.2437 13 30 13V19ZM33.5 22.5H27.5C27.5 21.1163 28.6163 20 30 20V26V32C35.2437 32 39.5 27.7437 39.5 22.5H33.5Z" fill="#FAF3EB" mask="url(#path-6-inside-3_78_15)"/>
<defs>
<linearGradient id="paint0_linear_78_15" x1="-1.69309e-09" y1="29.897" x2="60.0002" y2="29.9886" gradientUnits="userSpaceOnUse">
<stop stop-color="#FFA656"/>
<stop offset="1" stop-color="#CF711C"/>
</linearGradient>
</defs>
</svg>
