<svg width="304" height="62" viewBox="0 0 304 62" fill="none" xmlns="http://www.w3.org/2000/svg">
<rect y="50" width="304" height="10" rx="5" fill="#FFE3CA"/>
<rect y="50" width="74.8985" height="10" rx="5" fill="url(#paint0_linear_264_590)"/>
<path d="M69.413 47.5C73.3404 47.5 76.5135 50.6402 76.5135 54.5C76.5135 58.3598 73.3404 61.5 69.413 61.5C65.4857 61.4998 62.3134 58.3596 62.3134 54.5C62.3134 50.6404 65.4857 47.5002 69.413 47.5Z" fill="url(#paint1_linear_264_590)" stroke="#FAF3EB"/>
<rect x="33.5" y="0.5" width="69" height="28" rx="5.5" fill="#FAF3EB"/>
<rect x="33.5" y="0.5" width="69" height="28" rx="5.5" stroke="#1F2937"/>
<path d="M44.6506 18.852C44.7039 18.852 44.7572 18.8627 44.8106 18.884C44.8746 18.9053 44.9492 18.9533 45.0346 19.028C45.2586 19.2627 45.5252 19.444 45.8346 19.572C46.1439 19.6893 46.4959 19.748 46.8906 19.748C47.4132 19.748 47.8879 19.6307 48.3146 19.396C48.7519 19.1613 49.0986 18.836 49.3546 18.42C49.6106 17.9933 49.7386 17.508 49.7386 16.964C49.7386 16.3453 49.5999 15.8493 49.3226 15.476C49.0559 15.092 48.7092 14.8093 48.2826 14.628C47.8666 14.436 47.4399 14.34 47.0026 14.34C46.8852 14.34 46.7679 14.3507 46.6506 14.372C46.5439 14.3827 46.4426 14.3987 46.3466 14.42C46.2506 14.4413 46.1759 14.452 46.1226 14.452C45.9839 14.452 45.8772 14.4093 45.8026 14.324C45.7279 14.228 45.6906 14.1107 45.6906 13.972C45.6906 13.8973 45.7066 13.8333 45.7386 13.78C45.7706 13.716 45.8132 13.6467 45.8666 13.572L49.1146 10.036L49.3066 10.292H44.4586C44.3306 10.292 44.2186 10.2493 44.1226 10.164C44.0372 10.068 43.9946 9.956 43.9946 9.828C43.9946 9.7 44.0372 9.59333 44.1226 9.508C44.2186 9.42267 44.3306 9.38 44.4586 9.38H49.8346C50.0159 9.38 50.1439 9.43867 50.2186 9.556C50.2932 9.66267 50.3306 9.76933 50.3306 9.876C50.3306 9.94 50.3146 10.004 50.2826 10.068C50.2506 10.1213 50.2079 10.18 50.1546 10.244L46.9066 13.78L46.5546 13.572C46.5866 13.54 46.6932 13.508 46.8746 13.476C47.0666 13.4333 47.2159 13.412 47.3226 13.412C47.9092 13.412 48.4586 13.5507 48.9706 13.828C49.4932 14.1053 49.9146 14.5053 50.2346 15.028C50.5652 15.54 50.7306 16.1747 50.7306 16.932C50.7306 17.6787 50.5546 18.3347 50.2026 18.9C49.8506 19.4547 49.3759 19.8867 48.7786 20.196C48.1812 20.5053 47.5199 20.66 46.7946 20.66C46.3572 20.66 45.9252 20.5853 45.4986 20.436C45.0719 20.2867 44.6986 20.0627 44.3786 19.764C44.3039 19.7 44.2506 19.636 44.2186 19.572C44.1866 19.508 44.1706 19.444 44.1706 19.38C44.1706 19.252 44.2132 19.1347 44.2986 19.028C44.3946 18.9107 44.5119 18.852 44.6506 18.852ZM56.3692 20.66C55.5159 20.66 54.8012 20.404 54.2252 19.892C53.6492 19.38 53.2172 18.692 52.9292 17.828C52.6412 16.9533 52.4972 15.9773 52.4972 14.9C52.4972 13.812 52.6412 12.836 52.9292 11.972C53.2172 11.0973 53.6492 10.4093 54.2252 9.908C54.8012 9.396 55.5159 9.14 56.3692 9.14C57.2439 9.14 57.9639 9.396 58.5292 9.908C59.1052 10.4093 59.5372 11.0973 59.8252 11.972C60.1132 12.836 60.2572 13.812 60.2572 14.9C60.2572 15.9773 60.1132 16.9533 59.8252 17.828C59.5372 18.692 59.1052 19.38 58.5292 19.892C57.9639 20.404 57.2439 20.66 56.3692 20.66ZM56.3692 19.668C56.9985 19.668 57.5212 19.4707 57.9372 19.076C58.3639 18.6813 58.6839 18.1267 58.8972 17.412C59.1212 16.6867 59.2332 15.8493 59.2332 14.9C59.2332 13.94 59.1212 13.1027 58.8972 12.388C58.6839 11.6627 58.3639 11.1027 57.9372 10.708C57.5212 10.3133 56.9985 10.116 56.3692 10.116C55.7505 10.116 55.2279 10.3133 54.8012 10.708C54.3852 11.1027 54.0652 11.6627 53.8412 12.388C53.6279 13.1027 53.5212 13.94 53.5212 14.9C53.5212 15.8493 53.6279 16.6867 53.8412 17.412C54.0652 18.1267 54.3852 18.6813 54.8012 19.076C55.2279 19.4707 55.7505 19.668 56.3692 19.668ZM70.4518 12.26C71.1131 12.26 71.6785 12.436 72.1478 12.788C72.6171 13.1293 72.9371 13.6413 73.1078 14.324L72.8838 14.388L72.9798 14.1C73.1185 13.78 73.3478 13.4813 73.6678 13.204C73.9985 12.916 74.3718 12.6867 74.7878 12.516C75.2038 12.3453 75.6251 12.26 76.0518 12.26C76.7238 12.26 77.2625 12.404 77.6678 12.692C78.0838 12.98 78.3825 13.3693 78.5638 13.86C78.7558 14.34 78.8518 14.884 78.8518 15.492V20.02C78.8518 20.148 78.8038 20.26 78.7078 20.356C78.6225 20.452 78.5105 20.5 78.3718 20.5C78.2331 20.5 78.1158 20.452 78.0198 20.356C77.9345 20.26 77.8918 20.148 77.8918 20.02V15.54C77.8918 15.1027 77.8225 14.7027 77.6838 14.34C77.5451 13.9773 77.3265 13.6893 77.0278 13.476C76.7291 13.2627 76.3291 13.156 75.8278 13.156C75.3905 13.156 74.9691 13.2627 74.5638 13.476C74.1691 13.6893 73.8438 13.9773 73.5878 14.34C73.3425 14.7027 73.2198 15.1027 73.2198 15.54V20.02C73.2198 20.148 73.1718 20.26 73.0758 20.356C72.9905 20.452 72.8785 20.5 72.7398 20.5C72.6011 20.5 72.4838 20.452 72.3878 20.356C72.3025 20.26 72.2598 20.148 72.2598 20.02V15.492C72.2598 15.0547 72.1958 14.66 72.0678 14.308C71.9398 13.956 71.7318 13.6787 71.4438 13.476C71.1558 13.2627 70.7665 13.156 70.2758 13.156C69.8385 13.156 69.4225 13.2627 69.0278 13.476C68.6438 13.6787 68.3291 13.956 68.0838 14.308C67.8491 14.66 67.7318 15.0547 67.7318 15.492V20.02C67.7318 20.148 67.6838 20.26 67.5878 20.356C67.4918 20.452 67.3798 20.5 67.2518 20.5C67.1025 20.5 66.9851 20.452 66.8998 20.356C66.8145 20.26 66.7718 20.148 66.7718 20.02V12.852C66.7718 12.724 66.8145 12.612 66.8998 12.516C66.9958 12.42 67.1131 12.372 67.2518 12.372C67.3905 12.372 67.5025 12.42 67.5878 12.516C67.6838 12.612 67.7318 12.724 67.7318 12.852V14.34L67.2998 14.932C67.3318 14.612 67.4331 14.292 67.6038 13.972C67.7851 13.652 68.0198 13.364 68.3078 13.108C68.5958 12.852 68.9211 12.6493 69.2838 12.5C69.6571 12.34 70.0465 12.26 70.4518 12.26ZM82.2936 20.02C82.2936 20.148 82.2456 20.26 82.1496 20.356C82.0536 20.452 81.9416 20.5 81.8136 20.5C81.6749 20.5 81.5576 20.452 81.4616 20.356C81.3762 20.26 81.3336 20.148 81.3336 20.02V12.66C81.3336 12.532 81.3762 12.42 81.4616 12.324C81.5576 12.228 81.6749 12.18 81.8136 12.18C81.9522 12.18 82.0642 12.228 82.1496 12.324C82.2456 12.42 82.2936 12.532 82.2936 12.66V20.02ZM81.8136 11.108C81.5896 11.108 81.4189 11.06 81.3016 10.964C81.1949 10.8573 81.1416 10.708 81.1416 10.516V10.356C81.1416 10.164 81.2002 10.02 81.3176 9.924C81.4456 9.81733 81.6162 9.764 81.8296 9.764C82.0322 9.764 82.1869 9.81733 82.2936 9.924C82.4109 10.02 82.4696 10.164 82.4696 10.356V10.516C82.4696 10.708 82.4109 10.8573 82.2936 10.964C82.1869 11.06 82.0269 11.108 81.8136 11.108ZM88.6434 12.132C89.3474 12.132 89.9074 12.276 90.3234 12.564C90.7501 12.8413 91.0541 13.2253 91.2354 13.716C91.4274 14.196 91.5234 14.7293 91.5234 15.316V20.02C91.5234 20.148 91.4754 20.26 91.3794 20.356C91.2834 20.452 91.1714 20.5 91.0434 20.5C90.8941 20.5 90.7768 20.452 90.6914 20.356C90.6061 20.26 90.5634 20.148 90.5634 20.02V15.364C90.5634 14.9373 90.4941 14.548 90.3554 14.196C90.2168 13.844 89.9874 13.5613 89.6674 13.348C89.3581 13.1347 88.9474 13.028 88.4354 13.028C87.9768 13.028 87.5394 13.1347 87.1234 13.348C86.7181 13.5613 86.3874 13.844 86.1314 14.196C85.8754 14.548 85.7474 14.9373 85.7474 15.364V20.02C85.7474 20.148 85.6994 20.26 85.6034 20.356C85.5074 20.452 85.3954 20.5 85.2674 20.5C85.1181 20.5 85.0008 20.452 84.9154 20.356C84.8301 20.26 84.7874 20.148 84.7874 20.02V12.852C84.7874 12.724 84.8301 12.612 84.9154 12.516C85.0114 12.42 85.1288 12.372 85.2674 12.372C85.4061 12.372 85.5181 12.42 85.6034 12.516C85.6994 12.612 85.7474 12.724 85.7474 12.852V14.196L85.3794 14.772C85.4008 14.4307 85.5074 14.1053 85.6994 13.796C85.9021 13.476 86.1581 13.1933 86.4674 12.948C86.7768 12.692 87.1181 12.4947 87.4914 12.356C87.8754 12.2067 88.2594 12.132 88.6434 12.132Z" fill="#1F2937"/>
<path d="M69.21 44.5029C68.6107 45.3208 67.3893 45.3208 66.79 44.5029L56.4453 30.3867C55.7195 29.396 56.4272 28.0003 57.6553 28L78.3447 28C79.5728 28.0003 80.2805 29.396 79.5547 30.3867L69.21 44.5029Z" fill="#FAF3EB" stroke="#1F2937" stroke-linejoin="bevel"/>
<rect x="55.5" y="23" width="25" height="7" fill="#FAF3EB"/>
<rect x="55.3245" y="28.0222" width="2.54655" height="1.02524" transform="rotate(53.5108 55.3245 28.0222)" fill="#1F2937"/>
<rect x="81.3174" y="28.7876" width="3.49006" height="0.987831" transform="rotate(125.783 81.3174 28.7876)" fill="#1F2937"/>
<defs>
<linearGradient id="paint0_linear_264_590" x1="-2.1135e-09" y1="54.9828" x2="74.8892" y2="55.8387" gradientUnits="userSpaceOnUse">
<stop stop-color="#FFA656"/>
<stop offset="1" stop-color="#CF711C"/>
</linearGradient>
<linearGradient id="paint1_linear_264_590" x1="61.8134" y1="54.4743" x2="77.0134" y2="54.4978" gradientUnits="userSpaceOnUse">
<stop stop-color="#FFA656"/>
<stop offset="1" stop-color="#CF711C"/>
</linearGradient>
</defs>
</svg>
